<?xml version="1.0" encoding="UTF-8"?>
<svg version="1.1" xmlns="http://www.w3.org/2000/svg" width="56" height="42">
<path d="M0 0 C18.48 0 36.96 0 56 0 C56 13.86 56 27.72 56 42 C37.52 42 19.04 42 0 42 C0 28.14 0 14.28 0 0 Z " fill="#FEFEFE" transform="translate(0,0)"/>
<path d="M0 0 C0.33 0.66 0.66 1.32 1 2 C2.299375 1.979375 3.59875 1.95875 4.9375 1.9375 C6.29165633 1.91600546 7.64756083 1.92851801 9 2 C9.33 2.33 9.66 2.66 10 3 C10.33 2.01 10.66 1.02 11 0 C11.66 0 12.32 0 13 0 C13 2.97 13 5.94 13 9 C12.34 9 11.68 9 11 9 C10.67 8.34 10.34 7.68 10 7 C9.01 7.495 9.01 7.495 8 8 C8.66 8.33 9.32 8.66 10 9 C6.92954549 9.9097643 4.20049657 10.17299981 1 10 C0 9 0 9 -0.09765625 6.93359375 C-0.08605469 6.10988281 -0.07445312 5.28617188 -0.0625 4.4375 C-0.05347656 3.61121094 -0.04445312 2.78492188 -0.03515625 1.93359375 C-0.02355469 1.29550781 -0.01195312 0.65742188 0 0 Z " fill="#8B8B8B" transform="translate(33,17)"/>
<path d="M0 0 C0.61875 0.165 1.2375 0.33 1.875 0.5 C4.16786836 1.23577017 4.16786836 1.23577017 7 0 C8.5 1.375 8.5 1.375 10 3 C10 3.66 10 4.32 10 5 C3.72307692 8.2 3.72307692 8.2 0.0625 7.1875 C-0.618125 6.795625 -1.29875 6.40375 -2 6 C-1.125 1.125 -1.125 1.125 0 0 Z " fill="#ABCEBE" transform="translate(12,19)"/>
<path d="M0 0 C3.27275026 0 5.846632 0.29925156 9 1 C9.125 3.375 9.125 3.375 9 6 C8.34 6.66 7.68 7.32 7 8 C3.4375 7.75 3.4375 7.75 0 7 C-1.33332095 4.3333581 -0.67102033 2.83319697 0 0 Z " fill="#ACACAC" transform="translate(23,19)"/>
<path d="M0 0 C0.33 0.66 0.66 1.32 1 2 C3.02463255 2.65213292 3.02463255 2.65213292 5 3 C5 4.98 5 6.96 5 9 C3.0625 9.5625 3.0625 9.5625 1 10 C0 9 0 9 -0.09765625 6.93359375 C-0.08605469 6.10988281 -0.07445312 5.28617188 -0.0625 4.4375 C-0.05347656 3.61121094 -0.04445312 2.78492188 -0.03515625 1.93359375 C-0.02355469 1.29550781 -0.01195312 0.65742188 0 0 Z " fill="#ACACAC" transform="translate(33,17)"/>
<path d="M0 0 C2 0.25 2 0.25 4 1 C4.33 1.99 4.66 2.98 5 4 C3.35 4 1.7 4 0 4 C0.33 4.99 0.66 5.98 1 7 C0.01 6.67 -0.98 6.34 -2 6 C-1.125 1.125 -1.125 1.125 0 0 Z " fill="#8C8C8C" transform="translate(12,19)"/>
<path d="M0 0 C0.66 0 1.32 0 2 0 C2 2.97 2 5.94 2 9 C1.34 9 0.68 9 0 9 C-0.84454356 5.62182575 -1.10844919 3.32534757 0 0 Z " fill="#959595" transform="translate(44,17)"/>
<path d="M0 0 C0.66 0 1.32 0 2 0 C2.33 1.98 2.66 3.96 3 6 C1.68 6 0.36 6 -1 6 C-0.67 4.02 -0.34 2.04 0 0 Z " fill="#99BAAB" transform="translate(23,19)"/>
</svg>
