<?xml version="1.0" encoding="UTF-8"?>
<svg version="1.1" xmlns="http://www.w3.org/2000/svg" width="640" height="226">
<path d="M0 0 C4.97876371 0.26865889 9.95565242 0.55603355 14.93164062 0.87207031 C16.5944236 0.97491477 18.2580602 1.06391215 19.921875 1.1484375 C24.96618386 1.51371504 28.14396275 2.70826088 32 6 C32.70724048 7.3122626 33.37000376 8.64895338 34 10 C35.28133642 12.26728687 36.57725519 14.52556982 37.87890625 16.78125 C39.86571598 20.71333337 40.12582894 24.16895971 40.12939453 28.54711914 C40.13254669 29.65829605 40.13569885 30.76947296 40.13894653 31.9143219 C40.13591019 33.7066349 40.13591019 33.7066349 40.1328125 35.53515625 C40.13376923 36.76535995 40.13472595 37.99556366 40.13571167 39.26304626 C40.13639205 41.86294608 40.13454763 44.46284759 40.13037109 47.06274414 C40.12678786 49.73111323 40.12581079 52.39928034 40.13037109 55.06762695 C40.13653527 58.91099084 40.1358038 62.75428969 40.1328125 66.59765625 C40.13483673 67.79455582 40.13686096 68.99145538 40.13894653 70.22462463 C40.13421829 71.88666176 40.13421829 71.88666176 40.12939453 73.58227539 C40.12859894 74.55838272 40.12780334 75.53449005 40.12698364 76.54017639 C40 79 40 79 39 82 C31.08 82 23.16 82 15 82 C14.19361665 78.77446659 13.86405293 76.50792801 13.82641602 73.26318359 C13.81292618 72.32896576 13.79943634 71.39474792 13.78553772 70.43222046 C13.76988014 68.93049789 13.76988014 68.93049789 13.75390625 67.3984375 C13.72098952 65.27864137 13.68777753 63.1588498 13.65429688 61.0390625 C13.60673814 57.69664432 13.56225747 54.35424747 13.52319336 51.01171875 C13.48363328 47.78626956 13.4320749 44.56118694 13.37890625 41.3359375 C13.3704921 40.33074066 13.36207794 39.32554382 13.35340881 38.28988647 C13.33676682 37.36197296 13.32012482 36.43405945 13.30297852 35.47802734 C13.28751732 34.25036148 13.28751732 34.25036148 13.27174377 32.99789429 C13.17408894 30.77051849 13.17408894 30.77051849 11 29 C9.01643517 28.28591666 7.01684563 27.61382258 5 27 C5 26.34 5 25.68 5 25 C3.69989317 25.65005342 2.40755614 26.31597006 1.125 27 C-1 28 -1 28 -3.125 28.4375 C-5.39460571 28.90121021 -5.39460571 28.90121021 -7 32 C-7.31974283 34.17832282 -7.31974283 34.17832282 -7.30297852 36.60742188 C-7.31962051 37.53848755 -7.33626251 38.46955322 -7.35340881 39.42883301 C-7.36182297 40.43200562 -7.37023712 41.43517822 -7.37890625 42.46875 C-7.39590073 43.50060425 -7.4128952 44.5324585 -7.43040466 45.59558105 C-7.48359433 48.89699161 -7.52385239 52.19838965 -7.5625 55.5 C-7.60642779 58.80154535 -7.65314688 62.10299316 -7.70530701 65.40441895 C-7.73725506 67.45992733 -7.76414796 69.51552163 -7.78553772 71.57116699 C-7.79902756 72.50223267 -7.8125174 73.43329834 -7.82641602 74.39257812 C-7.84068382 75.62143738 -7.84068382 75.62143738 -7.85523987 76.87512207 C-8 79 -8 79 -9 82 C-16.92 82 -24.84 82 -33 82 C-33.8040249 78.78390041 -34.13579705 76.52863506 -34.17358398 73.29492188 C-34.18707382 72.36715942 -34.20056366 71.43939697 -34.21446228 70.48352051 C-34.22490067 69.48864624 -34.23533905 68.49377197 -34.24609375 67.46875 C-34.27902017 65.35806858 -34.31223201 63.2473916 -34.34570312 61.13671875 C-34.39318446 57.8120415 -34.43764859 54.48738378 -34.47680664 51.16259766 C-34.51648224 47.95196293 -34.5680236 44.74168732 -34.62109375 41.53125 C-34.6295079 40.53637573 -34.63792206 39.54150146 -34.64659119 38.51647949 C-34.67155418 37.12483582 -34.67155418 37.12483582 -34.69702148 35.70507812 C-34.70732895 34.89107544 -34.71763641 34.07707275 -34.72825623 33.23840332 C-35.02629972 30.78336436 -35.77434078 29.13124971 -37 27 C-38.98 27 -40.96 27 -43 27 C-43 26.34 -43 25.68 -43 25 C-44.30010683 25.65005342 -45.59244386 26.31597006 -46.875 27 C-49 28 -49 28 -51.125 28.4375 C-53.39460571 28.90121021 -53.39460571 28.90121021 -55 32 C-55.31980683 34.19261937 -55.31980683 34.19261937 -55.30297852 36.63916016 C-55.31962051 37.57668121 -55.33626251 38.51420227 -55.35340881 39.48013306 C-55.36182297 40.48957977 -55.37023712 41.49902649 -55.37890625 42.5390625 C-55.39590073 43.5756601 -55.4128952 44.61225769 -55.43040466 45.68026733 C-55.48359716 48.99511618 -55.52386923 52.30995191 -55.5625 55.625 C-55.60636357 58.94712579 -55.65299926 62.26915219 -55.70530701 65.59115601 C-55.73737358 67.65994835 -55.76422899 69.72882889 -55.78553772 71.79776001 C-55.79902756 72.72897675 -55.8125174 73.66019348 -55.82641602 74.61962891 C-55.83592789 75.44330963 -55.84543976 76.26699036 -55.85523987 77.1156311 C-56 79 -56 79 -57 80 C-58.77869726 80.15764405 -60.56318476 80.25100677 -62.34765625 80.31640625 C-63.42724609 80.35830078 -64.50683594 80.40019531 -65.61914062 80.44335938 C-66.75544922 80.48267578 -67.89175781 80.52199219 -69.0625 80.5625 C-70.20267578 80.60568359 -71.34285156 80.64886719 -72.51757812 80.69335938 C-75.34492195 80.79982839 -78.17235738 80.90184207 -81 81 C-82.15912984 77.52261049 -82.1341383 74.79912018 -82.14526367 71.12939453 C-82.14862228 70.43473083 -82.1519809 69.74006714 -82.15544128 69.02435303 C-82.16494261 66.72715467 -82.16689403 64.43002928 -82.16796875 62.1328125 C-82.17118208 60.53482025 -82.17454621 58.9368283 -82.17805481 57.33883667 C-82.18404415 53.98809121 -82.18589493 50.63737153 -82.18530273 47.28662109 C-82.18520116 42.99705349 -82.19884902 38.70765159 -82.21607494 34.41812325 C-82.22720454 31.11696618 -82.22922164 27.81584904 -82.22869301 24.51467514 C-82.22987184 22.9334646 -82.23428822 21.35225299 -82.24202538 19.77106094 C-82.25184399 17.55705482 -82.2489399 15.34340666 -82.24291992 13.12939453 C-82.24434494 11.87047394 -82.24576996 10.61155334 -82.24723816 9.31448364 C-82 6 -82 6 -80 1 C-72.41 1 -64.82 1 -57 1 C-56.10869587 3.6739124 -55.52268466 6.23723823 -55 9 C-54.608125 8.21625 -54.21625 7.4325 -53.8125 6.625 C-51.22485706 2.87737919 -48.73427696 2.35414665 -44.3984375 1.46875 C-40.22489707 0.89308925 -36.14556367 0.7776165 -31.9375 0.75 C-31.14794922 0.729375 -30.35839844 0.70875 -29.54492188 0.6875 C-24.86263501 0.6561016 -21.80037721 0.95529625 -18 4 C-16.6875 6.1875 -16.6875 6.1875 -16 8 C-12.8180056 8 -11.67643887 7.58913558 -9 6 C-8.54625 5.484375 -8.0925 4.96875 -7.625 4.4375 C-5.29597725 2.37721065 -3.02461466 2.3360683 0 2 C0 1.34 0 0.68 0 0 Z M-79 2 C-79 2.33 -79 2.66 -79 3 C-72.07 3 -65.14 3 -58 3 C-58 2.67 -58 2.34 -58 2 C-64.93 2 -71.86 2 -79 2 Z " fill="#000000" transform="translate(298,83)"/>
<path d="M0 0 C0.9583374 0.00523682 1.9166748 0.01047363 2.90405273 0.01586914 C4.45576172 0.02070312 4.45576172 0.02070312 6.03881836 0.02563477 C7.12743164 0.03401367 8.21604492 0.04239258 9.33764648 0.05102539 C10.97636719 0.05779297 10.97636719 0.05779297 12.64819336 0.06469727 C15.35723144 0.07652713 18.06616248 0.09300996 20.77514648 0.11352539 C21.6870226 2.84915373 21.92244907 4.57498014 21.98046875 7.40136719 C22.00041397 8.26203293 22.02035919 9.12269867 22.04090881 10.00944519 C22.05762131 10.93453384 22.0743338 11.8596225 22.09155273 12.81274414 C22.11233383 13.76292923 22.13311493 14.71311432 22.15452576 15.6920929 C22.21992701 18.72832995 22.27886252 21.76465371 22.33764648 24.80102539 C22.38084066 26.85897708 22.42445524 28.91691998 22.46850586 30.97485352 C22.57559879 36.02098855 22.67689294 41.06721082 22.77514648 46.11352539 C23.96430664 44.70006836 23.96430664 44.70006836 25.17749023 43.25805664 C25.62342529 42.72801025 26.06936035 42.19796387 26.52880859 41.65185547 C27.88322287 40.02552296 27.88322287 40.02552296 29.33764648 37.80102539 C30.77514648 36.11352539 30.77514648 36.11352539 32.65014648 35.73852539 C35.50752265 34.89812064 36.67173513 33.09402207 38.43139648 30.78149414 C42.8868124 25.25107962 42.8868124 25.25107962 46.70776367 24.65942383 C47.81796875 24.68037109 48.92817383 24.70131836 50.07202148 24.72290039 C51.87993164 24.74223633 51.87993164 24.74223633 53.72436523 24.76196289 C54.97862305 24.79547852 56.23288086 24.82899414 57.52514648 24.86352539 C58.79487305 24.88157227 60.06459961 24.89961914 61.37280273 24.91821289 C64.50767726 24.96535386 67.64103208 25.03114875 70.77514648 25.11352539 C71.92367086 28.55909852 71.88742602 29.69723826 70.77514648 33.11352539 C69.17971159 35.17079671 67.5098836 37.17227195 65.77514648 39.11352539 C65.25952148 39.87665039 64.74389648 40.63977539 64.21264648 41.42602539 C62.77514648 43.11352539 62.77514648 43.11352539 60.83764648 43.55102539 C57.68850135 44.40988316 56.65883415 46.52345484 54.77514648 49.11352539 C53.99139648 49.91790039 53.20764648 50.72227539 52.40014648 51.55102539 C50.44527065 53.97525301 50.44527065 53.97525301 51.29467773 56.59399414 C53.41172152 61.62686076 56.11163542 66.26377498 58.83764648 70.98852539 C59.41603271 72.00487061 59.99441895 73.02121582 60.59033203 74.06835938 C63.23977724 78.72112418 65.91227055 83.35844861 68.63452148 87.96899414 C69.05338623 88.68780762 69.47225098 89.40662109 69.90380859 90.1472168 C70.669515 91.4594503 71.44572664 92.76563406 72.234375 94.06420898 C74.46088083 97.89813053 75.26844945 100.68695341 74.77514648 105.11352539 C73.77514648 106.11352539 73.77514648 106.11352539 71.18310547 106.22705078 C70.05718994 106.22181396 68.93127441 106.21657715 67.77124023 106.21118164 C65.94882812 106.20634766 65.94882812 106.20634766 64.08959961 106.20141602 C62.81020508 106.19303711 61.53081055 106.1846582 60.21264648 106.17602539 C58.92938477 106.17151367 57.64612305 106.16700195 56.32397461 106.16235352 C53.14098626 106.15052085 49.95808886 106.13403607 46.77514648 106.11352539 C46.38713867 105.17379883 45.99913086 104.23407227 45.59936523 103.26586914 C43.47099571 98.29967358 41.02116016 93.49792339 38.58764648 88.67602539 C38.12422852 87.75370117 37.66081055 86.83137695 37.18334961 85.88110352 C36.04910952 83.62431654 34.91300238 81.36849086 33.77514648 79.11352539 C33.11514648 79.11352539 32.45514648 79.11352539 31.77514648 79.11352539 C31.67202148 78.37102539 31.56889648 77.62852539 31.46264648 76.86352539 C30.73261144 73.94338521 29.70725251 72.38164985 27.77514648 70.11352539 C24.71553466 72.71364843 22.95598163 74.23624169 22.1315918 78.2355957 C22.12224609 79.37609375 22.11290039 80.5165918 22.10327148 81.69165039 C22.0787793 82.93430664 22.05428711 84.17696289 22.02905273 85.45727539 C22.02776367 86.74633789 22.02647461 88.03540039 22.02514648 89.36352539 C21.99216149 91.93128069 21.95589107 94.49899665 21.91577148 97.06665039 C21.90852051 98.77062988 21.90852051 98.77062988 21.90112305 100.5090332 C21.77514648 103.11352539 21.77514648 103.11352539 20.77514648 104.11352539 C19.07955923 104.21284693 17.37988901 104.24432546 15.68139648 104.24633789 C14.65143555 104.24762695 13.62147461 104.24891602 12.56030273 104.25024414 C10.93415039 104.24444336 10.93415039 104.24444336 9.27514648 104.23852539 C8.19104492 104.24239258 7.10694336 104.24625977 5.98999023 104.25024414 C4.9600293 104.24895508 3.93006836 104.24766602 2.86889648 104.24633789 C1.91692383 104.24520996 0.96495117 104.24408203 -0.01586914 104.24291992 C-2.22485352 104.11352539 -2.22485352 104.11352539 -3.22485352 103.11352539 C-3.3255513 99.95276195 -3.36099375 96.81380512 -3.35424805 93.65258789 C-3.35600037 92.65918396 -3.35775269 91.66578003 -3.35955811 90.64227295 C-3.36397862 87.34100627 -3.36103793 84.03979267 -3.35766602 80.73852539 C-3.358339 78.45548492 -3.35930897 76.17244452 -3.36056519 73.8894043 C-3.36204243 69.09756795 -3.35988675 64.30575021 -3.35522461 59.51391602 C-3.34952731 53.35635904 -3.35280618 47.19884565 -3.35879707 41.04129028 C-3.36240197 36.32486642 -3.36126443 31.60845298 -3.35866928 26.89202881 C-3.35799981 24.62091059 -3.35882912 22.34979145 -3.36114883 20.07867432 C-3.36367419 16.91057817 -3.35983641 13.74255367 -3.35424805 10.57446289 C-3.35627228 9.62585388 -3.35829651 8.67724487 -3.36038208 7.69989014 C-3.3356407 0.17020443 -3.3356407 0.17020443 0 0 Z M-1.22485352 1.11352539 C-1.22485352 1.44352539 -1.22485352 1.77352539 -1.22485352 2.11352539 C5.70514648 2.11352539 12.63514648 2.11352539 19.77514648 2.11352539 C19.77514648 1.78352539 19.77514648 1.45352539 19.77514648 1.11352539 C12.84514648 1.11352539 5.91514648 1.11352539 -1.22485352 1.11352539 Z M43.77514648 26.11352539 C43.77514648 26.44352539 43.77514648 26.77352539 43.77514648 27.11352539 C52.35514648 27.11352539 60.93514648 27.11352539 69.77514648 27.11352539 C69.77514648 26.78352539 69.77514648 26.45352539 69.77514648 26.11352539 C61.19514648 26.11352539 52.61514648 26.11352539 43.77514648 26.11352539 Z M48.77514648 52.11352539 C49.77514648 54.11352539 49.77514648 54.11352539 49.77514648 54.11352539 Z M47.77514648 104.11352539 C47.77514648 104.44352539 47.77514648 104.77352539 47.77514648 105.11352539 C56.02514648 105.11352539 64.27514648 105.11352539 72.77514648 105.11352539 C72.77514648 104.78352539 72.77514648 104.45352539 72.77514648 104.11352539 C64.52514648 104.11352539 56.27514648 104.11352539 47.77514648 104.11352539 Z " fill="#000000" transform="translate(425.224853515625,58.886474609375)"/>
<path d="M0 0 C0.495 0.99 0.495 0.99 1 2 C1.99 2.33 2.98 2.66 4 3 C4.9375 4.625 4.9375 4.625 6 7 C7.01700847 8.74925458 8.05373088 10.48543995 9.09765625 12.21875 C10.99270302 15.95962155 11.12607624 19.49031533 11.12939453 23.63891602 C11.13254669 24.77011368 11.13569885 25.90131134 11.13894653 27.06678772 C11.13591019 28.89191139 11.13591019 28.89191139 11.1328125 30.75390625 C11.13376923 32.006306 11.13472595 33.25870575 11.13571167 34.54905701 C11.1363921 37.19606994 11.1350495 39.8429905 11.13037109 42.48999023 C11.12466824 45.88176184 11.1279594 49.2734544 11.13394356 52.66522312 C11.13842592 55.90312034 11.13528787 59.141008 11.1328125 62.37890625 C11.13483673 63.5976796 11.13686096 64.81645294 11.13894653 66.07215881 C11.13421829 67.76422707 11.13421829 67.76422707 11.12939453 69.49047852 C11.12859894 70.48435074 11.12780334 71.47822296 11.12698364 72.50221252 C11 75 11 75 10 78 C2.41 78 -5.18 78 -13 78 C-13.66 76.68 -14.32 75.36 -15 74 C-15.474375 74.474375 -15.94875 74.94875 -16.4375 75.4375 C-24.61548213 80.42407447 -37.9364021 78.43415739 -46.90625 76.73046875 C-50.71411368 75.40197899 -52.68450951 72.25105399 -55.0625 69.125 C-55.56910156 68.46757812 -56.07570313 67.81015625 -56.59765625 67.1328125 C-60.90918095 60.57545182 -60.87066921 53.62913124 -60 46 C-58.73159469 42.92093433 -57.03590632 40.60349232 -55 38 C-54.65710938 37.29230469 -54.31421875 36.58460937 -53.9609375 35.85546875 C-53 34 -53 34 -51 32.9375 C-46.67755241 31.58673513 -42.34795675 30.26639517 -38 29 C-38.99 28.01 -39.98 27.02 -41 26 C-40.41734375 26.10699219 -39.8346875 26.21398437 -39.234375 26.32421875 C-31.92583327 27.39292061 -26.01675531 26.13396167 -19 24 C-19 23.34 -19 22.68 -19 22 C-18.34 22 -17.68 22 -17 22 C-17 21.34 -17 20.68 -17 20 C-21.18856263 18.60381246 -24.69067298 19.40063938 -29 20 C-29.94875 20.103125 -30.8975 20.20625 -31.875 20.3125 C-34.20221255 20.80563534 -34.20221255 20.80563534 -35.25 23.125 C-37 25 -37 25 -38.796875 25.14453125 C-41.24821487 24.91417484 -43.58920217 24.50299806 -46 24 C-46.97839844 23.79890625 -47.95679688 23.5978125 -48.96484375 23.390625 C-56.49685348 21.60907211 -56.49685348 21.60907211 -58.484375 19.203125 C-59 17 -59 17 -57.98828125 14.59765625 C-57.43527344 13.76105469 -56.88226563 12.92445312 -56.3125 12.0625 C-55.77238281 11.22847656 -55.23226563 10.39445312 -54.67578125 9.53515625 C-54.12277344 8.69855469 -53.56976563 7.86195312 -53 7 C-52.48308594 6.10667969 -51.96617187 5.21335937 -51.43359375 4.29296875 C-49.62278117 1.39665544 -48.10270152 0.41031887 -45 -1 C-42.67843403 -1.40729228 -40.3431213 -1.74438677 -38 -2 C-37.05024292 -2.2482251 -37.05024292 -2.2482251 -36.08129883 -2.50146484 C-32.03161186 -3.47148957 -27.83427136 -3.43093224 -23.6875 -3.625 C-22.30014648 -3.70234375 -22.30014648 -3.70234375 -20.88476562 -3.78125 C-13.24866376 -4.15030112 -6.74892316 -4.01721617 0 0 Z M-27 17 C-27 17.33 -27 17.66 -27 18 C-24.69 18 -22.38 18 -20 18 C-20 17.67 -20 17.34 -20 17 C-22.31 17 -24.62 17 -27 17 Z M-16 20 C-15 22 -15 22 -15 22 Z M-15 41 C-15 44.63 -15 48.26 -15 52 C-14.67 52 -14.34 52 -14 52 C-14 48.37 -14 44.74 -14 41 C-14.33 41 -14.66 41 -15 41 Z M-29.75 47.125 C-30.4925 47.74375 -31.235 48.3625 -32 49 C-32.66 48.67 -33.32 48.34 -34 48 C-34.85921208 50.40579383 -35.12574816 51.62764572 -34.296875 54.08203125 C-33.16349832 56.16775161 -33.16349832 56.16775161 -30.9765625 56.71484375 C-26.13864321 57.28772071 -26.13864321 57.28772071 -21.6875 55.6875 C-21.130625 55.130625 -20.57375 54.57375 -20 54 C-18.68163705 53.30419733 -17.35208914 52.62775567 -16 52 C-16 49.36 -16 46.72 -16 44 C-22.50193773 42.74962736 -24.64009615 43.17643793 -29.75 47.125 Z " fill="#000000" transform="translate(404,87)"/>
<path d="M0 0 C0.75796875 0.40863281 1.5159375 0.81726563 2.296875 1.23828125 C4.52382438 2.89067769 5.12838331 4.19022522 6.25 6.6875 C7.17594964 7.79863957 8.13610245 8.88199277 9.125 9.9375 C18.1748398 20.3117066 18.97795291 32.41505626 18.25 45.6875 C17.25 46.6875 17.25 46.6875 15.30747986 46.80775452 C14.45698563 46.80553391 13.60649139 46.80331329 12.73022461 46.80102539 C11.28884377 46.80091209 11.28884377 46.80091209 9.81834412 46.80079651 C8.773564 46.79563522 7.72878387 46.79047394 6.65234375 46.78515625 C5.58834854 46.7837413 4.52435333 46.78232635 3.42811584 46.78086853 C0.01454917 46.77525064 -3.398953 46.76269511 -6.8125 46.75 C-9.12044176 46.74498731 -11.42838455 46.740424 -13.73632812 46.73632812 C-19.40757426 46.7252754 -25.07878253 46.70851987 -30.75 46.6875 C-31.00030977 49.10369823 -31.00030977 49.10369823 -30.75 51.6875 C-27.46379848 53.87830101 -24.53119262 54.63716872 -20.75 55.6875 C-20.42 56.0175 -20.09 56.3475 -19.75 56.6875 C-14.42170663 55.9951229 -8.62101498 54.94479962 -3.75 52.6875 C-1.85057876 50.19197863 -1.85057876 50.19197863 -0.75 47.6875 C1.6875 48.0625 1.6875 48.0625 4.25 48.6875 C4.58 49.3475 4.91 50.0075 5.25 50.6875 C6.3328125 51.120625 6.3328125 51.120625 7.4375 51.5625 C10.86388429 52.93305372 13.44057994 54.27009204 16.25 56.6875 C17.0726082 61.1295843 16.59517814 63.09735673 14.3125 67 C13.631875 67.886875 12.95125 68.77375 12.25 69.6875 C11.92 70.3475 11.59 71.0075 11.25 71.6875 C9.765 72.1825 9.765 72.1825 8.25 72.6875 C7.92 73.3475 7.59 74.0075 7.25 74.6875 C4.1875 75.3125 4.1875 75.3125 1.25 75.6875 C1.25 76.3475 1.25 77.0075 1.25 77.6875 C-4.18550548 78.81239766 -9.47566477 78.87107089 -15 78.875 C-16.33611328 78.89336914 -16.33611328 78.89336914 -17.69921875 78.91210938 C-23.95262575 78.92572347 -29.66779367 78.08656255 -35.75 76.6875 C-36.63075195 76.53434326 -37.51150391 76.38118652 -38.41894531 76.22338867 C-41.59984186 75.49212894 -42.61346253 74.14775527 -44.75 71.6875 C-45.2140625 71.16800781 -45.678125 70.64851563 -46.15625 70.11328125 C-47.72467675 68.3327968 -49.24517255 66.52199325 -50.75 64.6875 C-51.20890625 64.12933594 -51.6678125 63.57117188 -52.140625 62.99609375 C-59.22815268 53.79511656 -60.71558943 42.30847443 -59.27734375 30.95703125 C-57.96355751 24.25887519 -56.10609159 18.61659515 -52.75 12.6875 C-52.42 11.6975 -52.09 10.7075 -51.75 9.6875 C-51.110625 9.378125 -50.47125 9.06875 -49.8125 8.75 C-47.60098154 7.88633146 -47.60098154 7.88633146 -46.9375 5.8125 C-44.80556607 1.99746033 -40.57924226 0.24643514 -36.5 -1 C-35.9225 -1.103125 -35.345 -1.20625 -34.75 -1.3125 C-33.76 -1.6425 -32.77 -1.9725 -31.75 -2.3125 C-28.32194611 -2.66142898 -24.87908553 -2.77862165 -21.4375 -2.9375 C-20.49970703 -2.9890625 -19.56191406 -3.040625 -18.59570312 -3.09375 C-11.7854344 -3.42010537 -6.09754725 -3.39570304 0 0 Z M-24.75 17.6875 C-24.75 18.0175 -24.75 18.3475 -24.75 18.6875 C-22.44 18.6875 -20.13 18.6875 -17.75 18.6875 C-17.75 18.3575 -17.75 18.0275 -17.75 17.6875 C-20.06 17.6875 -22.37 17.6875 -24.75 17.6875 Z M-30.31640625 20.40234375 C-31.02603516 21.53349609 -31.02603516 21.53349609 -31.75 22.6875 C-31.42 24.0075 -31.09 25.3275 -30.75 26.6875 C-23.82 26.6875 -16.89 26.6875 -9.75 26.6875 C-9.42 25.6975 -9.09 24.7075 -8.75 23.6875 C-10.71579414 20.9262094 -12.02569505 20.62174599 -15.40234375 19.81640625 C-16.82883059 19.6137577 -18.25740711 19.42540083 -19.6875 19.25 C-20.76161133 19.07694336 -20.76161133 19.07694336 -21.85742188 18.90039062 C-25.41860848 18.44162794 -27.28765233 18.3785645 -30.31640625 20.40234375 Z M-32.75 24.6875 C-31.75 28.6875 -31.75 28.6875 -31.75 28.6875 Z M-8.75 25.6875 C-7.75 28.6875 -7.75 28.6875 -7.75 28.6875 Z M-30.75 27.6875 C-30.75 28.0175 -30.75 28.3475 -30.75 28.6875 C-23.82 28.6875 -16.89 28.6875 -9.75 28.6875 C-9.75 28.3575 -9.75 28.0275 -9.75 27.6875 C-16.68 27.6875 -23.61 27.6875 -30.75 27.6875 Z M-33.75 44.6875 C-32.75 46.6875 -32.75 46.6875 -32.75 46.6875 Z M-31.75 44.6875 C-31.75 45.0175 -31.75 45.3475 -31.75 45.6875 C-15.91 45.6875 -0.07 45.6875 16.25 45.6875 C16.25 45.3575 16.25 45.0275 16.25 44.6875 C0.41 44.6875 -15.43 44.6875 -31.75 44.6875 Z M-32.75 46.6875 C-31.75 49.6875 -31.75 49.6875 -31.75 49.6875 Z M-19.75 57.6875 C-19.75 58.0175 -19.75 58.3475 -19.75 58.6875 C-17.77 58.6875 -15.79 58.6875 -13.75 58.6875 C-13.75 58.3575 -13.75 58.0275 -13.75 57.6875 C-15.73 57.6875 -17.71 57.6875 -19.75 57.6875 Z " fill="#000000" transform="translate(552.75,86.3125)"/>
<path d="M0 0 C3.4375 0.75 3.4375 0.75 5.4375 2.75 C8.66105904 5.62817772 11.18558644 6.21851081 15.4375 6.75 C16.77487094 7.06674575 18.11038808 7.39270064 19.4375 7.75 C18.87671393 12.41519771 17.58410215 15.91786445 15.4453125 20.08984375 C15.14341003 20.68525467 14.84150757 21.28066559 14.53045654 21.89411926 C13.88344582 23.16835889 13.2328722 24.44079467 12.57904053 25.71154785 C10.85440429 29.06389691 9.15560363 32.42932914 7.453125 35.79296875 C7.11090912 36.46727936 6.76869324 37.14158997 6.41610718 37.83633423 C2.83490931 44.90615419 -0.58223021 52.05140729 -3.97216797 59.21459961 C-4.37580566 60.06675049 -4.77944336 60.91890137 -5.1953125 61.796875 C-5.58106445 62.61220703 -5.96681641 63.42753906 -6.36425781 64.26757812 C-8.03058188 67.71973442 -9.78058683 71.12798394 -11.54248047 74.53222656 C-12.4964642 76.60642192 -13.09531928 78.52151618 -13.5625 80.75 C-20.3125 80 -20.3125 80 -22.5625 77.75 C-24.97905174 75.59236452 -26.31971313 74.79046448 -29.5625 74.25 C-32.84212861 73.70339523 -34.2663986 73.13114219 -36.5625 70.75 C-37.82428812 67.34113384 -37.61182513 65.88370973 -36.33764648 62.4296875 C-35.71711816 61.15447226 -35.08134658 59.88660437 -34.43359375 58.625 C-34.09249069 57.9330101 -33.75138763 57.2410202 -33.39994812 56.52806091 C-32.279496 54.26205533 -31.14005941 52.00619547 -30 49.75 C-29.22177998 48.18695795 -28.4449365 46.62322981 -27.66943359 45.05883789 C-26.48111708 42.66251639 -25.29163705 40.26684294 -24.09674072 37.87379456 C-21.47955683 32.6284758 -18.9243194 27.35769984 -16.41796875 22.05859375 C-15.93833931 21.04788315 -15.93833931 21.04788315 -15.44902039 20.01675415 C-13.61931623 16.16062777 -13.61931623 16.16062777 -11.80319214 12.2980957 C-10.98303685 10.54807412 -10.15194796 8.80318903 -9.3203125 7.05859375 C-8.62639404 5.58604126 -8.62639404 5.58604126 -7.91845703 4.08374023 C-5.74486362 0.34276447 -4.29529197 -0.301424 0 0 Z M-18.5625 78.75 C-14.5625 79.75 -14.5625 79.75 -14.5625 79.75 Z " fill="#9A08F8" transform="translate(106.5625,83.25)"/>
<path d="M0 0 C5.67369599 0.61727711 11.33829306 1.28105309 17 2 C18.49996038 2.18781665 19.99995948 2.37532447 21.5 2.5625 C22.655 2.706875 23.81 2.85125 25 3 C24.49121616 11.42063335 22.65141928 19.40767752 20.65625 27.58203125 C20.32316803 28.96809149 19.99070038 30.35429948 19.65881348 31.74064636 C18.79035623 35.36170535 17.91421681 38.98085964 17.03619385 42.59960938 C15.96937464 47.00240927 14.91129908 51.40731686 13.85234833 55.81201458 C13.02886892 59.23682592 12.20399106 62.66127783 11.37463379 66.08467102 C11.07762573 67.31332382 10.78061768 68.54197662 10.47460938 69.80786133 C10.08275452 71.42474602 10.08275452 71.42474602 9.6829834 73.07429504 C9.06809202 75.70831334 8.51256627 78.3444089 8 81 C7.45472656 80.855625 6.90945312 80.71125 6.34765625 80.5625 C0.75040076 79.18471403 -4.23945745 78.81712563 -10 79 C-10 78.34 -10 77.68 -10 77 C-12.31 77 -14.62 77 -17 77 C-19.38163212 69.85510365 -16.30013455 61.51897399 -14.49609375 54.453125 C-14.2533522 53.47889587 -14.01061066 52.50466675 -13.76051331 51.50091553 C-12.99169388 48.41586386 -12.21554263 45.33273759 -11.4375 42.25 C-10.40871236 38.17350422 -9.38756021 34.0952083 -8.37109375 30.015625 C-8.13361923 29.08534485 -7.89614471 28.1550647 -7.651474 27.19659424 C-7.43447342 26.32508728 -7.21747284 25.45358032 -6.99389648 24.55566406 C-6.80149887 23.7944928 -6.60910126 23.03332153 -6.41087341 22.24908447 C-5.96177582 19.79076425 -5.93007458 17.49368027 -6 15 C-5.34 15 -4.68 15 -4 15 C-3.896875 13.824375 -3.79375 12.64875 -3.6875 11.4375 C-3.17085042 7.17514097 -1.8491639 3.85912466 0 0 Z M17 3 C21 4 21 4 21 4 Z " fill="#C415F8" transform="translate(130,84)"/>
<path d="M0 0 C1.03125 0.00322266 2.0625 0.00644531 3.125 0.00976562 C4.74535156 0.02233398 4.74535156 0.02233398 6.3984375 0.03515625 C8.03039062 0.04192383 8.03039062 0.04192383 9.6953125 0.04882812 C12.38807539 0.06063849 15.08072938 0.07710847 17.7734375 0.09765625 C18.93337515 3.57746919 18.913464 6.68852957 18.90283203 10.30712891 C18.90458435 11.03747849 18.90633667 11.76782806 18.90814209 12.52030945 C18.91254322 14.93413672 18.90962934 17.34789074 18.90625 19.76171875 C18.90692339 21.4365541 18.90789371 23.11138935 18.90914917 24.78622437 C18.91062366 28.29499238 18.908479 31.80373494 18.90380859 35.3125 C18.89810265 39.81988862 18.90139734 44.32721781 18.90738106 48.83460426 C18.91098587 52.29172213 18.90984861 55.74882578 18.90725327 59.20594406 C18.90658423 60.86860537 18.90741161 62.53126795 18.90973282 64.19392776 C18.91225899 66.51164446 18.9084197 68.8292633 18.90283203 71.14697266 C18.90485626 71.83996964 18.90688049 72.53296661 18.90896606 73.2469635 C18.88770213 77.98339162 18.88770213 77.98339162 17.7734375 79.09765625 C16.00484557 79.19712078 14.23232299 79.22845842 12.4609375 79.23046875 C11.38585937 79.23175781 10.31078125 79.23304688 9.203125 79.234375 C8.07132813 79.23050781 6.93953125 79.22664063 5.7734375 79.22265625 C4.64164063 79.22652344 3.50984375 79.23039062 2.34375 79.234375 C1.26867187 79.23308594 0.19359375 79.23179687 -0.9140625 79.23046875 C-1.90792969 79.22934082 -2.90179688 79.22821289 -3.92578125 79.22705078 C-6.2265625 79.09765625 -6.2265625 79.09765625 -7.2265625 78.09765625 C-7.32152958 75.69417339 -7.35215112 73.31954643 -7.34008789 70.91577148 C-7.34023392 70.16460052 -7.34037994 69.41342957 -7.3405304 68.63949585 C-7.33983113 66.14505166 -7.33203814 63.65068122 -7.32421875 61.15625 C-7.32235462 59.43132061 -7.32093069 57.70639068 -7.31993103 55.98146057 C-7.31610547 51.43253122 -7.30627488 46.88363358 -7.29522705 42.3347168 C-7.28501374 37.69645619 -7.28043358 33.05819048 -7.27539062 28.41992188 C-7.26465264 19.31248603 -7.24757577 10.20507377 -7.2265625 1.09765625 C-4.66933021 -0.1809599 -2.85919148 -0.01570984 0 0 Z M-5.2265625 1.09765625 C-5.2265625 1.42765625 -5.2265625 1.75765625 -5.2265625 2.09765625 C2.0334375 2.09765625 9.2934375 2.09765625 16.7734375 2.09765625 C16.7734375 1.76765625 16.7734375 1.43765625 16.7734375 1.09765625 C9.5134375 1.09765625 2.2534375 1.09765625 -5.2265625 1.09765625 Z " fill="#D21AF7" transform="translate(163.2265625,83.90234375)"/>
<path d="M0 0 C1.03125 0.00322266 2.0625 0.00644531 3.125 0.00976562 C4.74535156 0.02233398 4.74535156 0.02233398 6.3984375 0.03515625 C8.03039062 0.04192383 8.03039062 0.04192383 9.6953125 0.04882812 C12.38807539 0.06063849 15.08072938 0.07710847 17.7734375 0.09765625 C18.98421451 3.72998727 18.89787914 7.04887612 18.87109375 10.828125 C18.8696788 11.57854568 18.86826385 12.32896637 18.86680603 13.10212708 C18.8612131 15.49651085 18.84866194 17.89080078 18.8359375 20.28515625 C18.83092158 21.90950386 18.82635884 23.53385293 18.82226562 25.15820312 C18.81124598 29.13805694 18.79398623 33.11784069 18.7734375 37.09765625 C18.1134375 36.76765625 17.4534375 36.43765625 16.7734375 36.09765625 C16.74838135 35.25992676 16.7233252 34.42219727 16.69750977 33.55908203 C16.60243393 30.45413369 16.50319725 27.34935444 16.40112305 24.24462891 C16.33645499 22.23870818 16.27660644 20.23263397 16.21679688 18.2265625 C16.17490234 16.96972656 16.13300781 15.71289062 16.08984375 14.41796875 C16.05318604 13.25539551 16.01652832 12.09282227 15.97875977 10.89501953 C15.95522091 8.14410615 15.95522091 8.14410615 14.7734375 6.09765625 C15.1034375 5.10765625 15.4334375 4.11765625 15.7734375 3.09765625 C6.3684375 3.59265625 6.3684375 3.59265625 -3.2265625 4.09765625 C-4.15194419 7.79918303 -4.30830412 8.73223787 -3.2265625 12.09765625 C-5.2065625 13.08765625 -5.2065625 13.08765625 -7.2265625 14.09765625 C-7.2265625 9.80765625 -7.2265625 5.51765625 -7.2265625 1.09765625 C-4.66933021 -0.1809599 -2.85919148 -0.01570984 0 0 Z M-5.2265625 1.09765625 C-5.2265625 1.42765625 -5.2265625 1.75765625 -5.2265625 2.09765625 C2.0334375 2.09765625 9.2934375 2.09765625 16.7734375 2.09765625 C16.7734375 1.76765625 16.7734375 1.43765625 16.7734375 1.09765625 C9.5134375 1.09765625 2.2534375 1.09765625 -5.2265625 1.09765625 Z " fill="#EB1DF1" transform="translate(163.2265625,83.90234375)"/>
<path d="M0 0 C0.33 0 0.66 0 1 0 C1 33 1 66 1 100 C0.67 100 0.34 100 0 100 C0 67 0 34 0 0 Z " fill="#000000" transform="translate(420,62)"/>
<path d="M0 0 C0.33 0 0.66 0 1 0 C1 24.75 1 49.5 1 75 C0.67 75 0.34 75 0 75 C0 50.25 0 25.5 0 0 Z " fill="#BA1AD4" transform="translate(183,87)"/>
<path d="M0 0 C0.33 0 0.66 0 1 0 C1 23.76 1 47.52 1 72 C0.67 72 0.34 72 0 72 C0 48.24 0 24.48 0 0 Z " fill="#000000" transform="translate(214,89)"/>
<path d="M0 0 C0.66 0 1.32 0 2 0 C2 11.22 2 22.44 2 34 C1.34 33.67 0.68 33.34 0 33 C-0.1431032 29.06732611 -0.28550028 25.13462735 -0.42724609 21.2019043 C-0.49930096 19.20685496 -0.57191337 17.21182579 -0.64453125 15.21679688 C-0.68964844 13.96318359 -0.73476562 12.70957031 -0.78125 11.41796875 C-0.82314453 10.26063232 -0.86503906 9.1032959 -0.90820312 7.91088867 C-1.08899408 2.17798817 -1.08899408 2.17798817 0 0 Z " fill="#F720FD" transform="translate(180,87)"/>
<path d="M0 0 C0.33 0 0.66 0 1 0 C1 21.45 1 42.9 1 65 C0.67 65 0.34 65 0 65 C-0.15394847 57.11577802 -0.30212862 49.23147765 -0.4429636 41.34701157 C-0.50854104 37.68587055 -0.57609832 34.02478847 -0.64819336 30.36376953 C-0.71770701 26.83012422 -0.78200282 23.29641883 -0.84269524 19.76261139 C-0.87845697 17.75954011 -0.91960958 15.75656744 -0.96083069 13.75360107 C-0.98092697 12.53263733 -1.00102325 11.31167358 -1.02172852 10.05371094 C-1.04171402 8.97893494 -1.06169952 7.90415894 -1.08229065 6.79681396 C-1.00992069 4.33717486 -0.71955012 2.34006269 0 0 Z " fill="#C716DD" transform="translate(154,97)"/>
<path d="M0 0 C1.32 0 2.64 0 4 0 C3.07934783 4.73478261 3.07934783 4.73478261 2.4296875 6.90625 C1.94816992 9.25255383 2.16066549 10.89821067 2.5625 13.25 C3.19100643 17.98736719 2.40402054 21.45758059 1 26 C0.67 26 0.34 26 0 26 C0 17.42 0 8.84 0 0 Z " fill="#EF1AFD" transform="translate(156,104)"/>
<path d="M0 0 C0.33 0 0.66 0 1 0 C1 18.81 1 37.62 1 57 C0.67 57 0.34 57 0 57 C0 38.19 0 19.38 0 0 Z " fill="#000000" transform="translate(416,105)"/>
<path d="M0 0 C0.33 0 0.66 0 1 0 C1 18.48 1 36.96 1 56 C0.67 56 0.34 56 0 56 C0 37.52 0 19.04 0 0 Z " fill="#000000" transform="translate(339,106)"/>
<path d="M0 0 C-0.51085812 6.43681228 -1.72942897 11.95942424 -4 18 C-4.66 17.67 -5.32 17.34 -6 17 C-6.042721 15.33388095 -6.04063832 13.66617115 -6 12 C-5.67 11.67 -5.34 11.34 -5 11 C-4.87625 9.72125 -4.7525 8.4425 -4.625 7.125 C-4.32007114 4.3806403 -4.1858849 3.24784653 -2.5 1 C-1 0 -1 0 0 0 Z " fill="#E81FF5" transform="translate(150,109)"/>
<path d="M0 0 C0.33 0 0.66 0 1 0 C1 15.51 1 31.02 1 47 C0.67 47 0.34 47 0 47 C0 31.49 0 15.98 0 0 Z " fill="#000000" transform="translate(291,115)"/>
<path d="M0 0 C0.33 0 0.66 0 1 0 C1 15.51 1 31.02 1 47 C0.67 47 0.34 47 0 47 C0 31.49 0 15.98 0 0 Z " fill="#000000" transform="translate(310,114)"/>
<path d="M0 0 C0.33 0 0.66 0 1 0 C1 15.51 1 31.02 1 47 C0.67 47 0.34 47 0 47 C0 31.49 0 15.98 0 0 Z " fill="#000000" transform="translate(262,114)"/>
<path d="M0 0 C0.33 0 0.66 0 1 0 C1.33 13.53 1.66 27.06 2 41 C1.01 41.495 1.01 41.495 0 42 C0 28.14 0 14.28 0 0 Z " fill="#000000" transform="translate(448,62)"/>
<path d="M0 0 C0.33 0 0.66 0 1 0 C1 9.24 1 18.48 1 28 C0.67 28 0.34 28 0 28 C0 18.76 0 9.52 0 0 Z " fill="#000000" transform="translate(448,134)"/>
<path d="M0 0 C7.92 0 15.84 0 24 0 C24 0.33 24 0.66 24 1 C16.08 1 8.16 1 0 1 C0 0.67 0 0.34 0 0 Z " fill="#DA0AFB" transform="translate(157,164)"/>
<path d="M0 0 C0.66 0.66 1.32 1.32 2 2 C1.9765625 4.1640625 1.9765625 4.1640625 1.625 6.625 C1.51414062 7.44226563 1.40328125 8.25953125 1.2890625 9.1015625 C1.19367188 9.72804687 1.09828125 10.35453125 1 11 C0.01 11.33 -0.98 11.66 -2 12 C-1 3.42857143 -1 3.42857143 0 0 Z " fill="#9307FB" transform="translate(115,141)"/>
<path d="M0 0 C7.59 0 15.18 0 23 0 C23 0.33 23 0.66 23 1 C15.41 1 7.82 1 0 1 C0 0.67 0 0.34 0 0 Z " fill="#000000" transform="translate(423,164)"/>
<path d="M0 0 C7.59 0 15.18 0 23 0 C23 0.33 23 0.66 23 1 C15.41 1 7.82 1 0 1 C0 0.67 0 0.34 0 0 Z " fill="#000000" transform="translate(218,164)"/>
<path d="M0 0 C1.0326802 2.78823655 1.04509293 3.8677274 0.0625 6.75 C-0.288125 7.4925 -0.63875 8.235 -1 9 C-1.66 8.67 -2.32 8.34 -3 8 C-3.36923077 3.44615385 -3.36923077 3.44615385 -1.5 1.1875 C-1.005 0.795625 -0.51 0.40375 0 0 Z " fill="#E01BFB" transform="translate(147,118)"/>
<path d="M0 0 C0.66 0 1.32 0 2 0 C2 2.97 2 5.94 2 9 C0 8 0 8 -1.25 5.625 C-1.4975 4.75875 -1.745 3.8925 -2 3 C-1.34 2.01 -0.68 1.02 0 0 Z " fill="#F528EC" transform="translate(180,87)"/>
<path d="M0 0 C0.99 0 1.98 0 3 0 C2.45276317 3.37462715 1.9451 5.08235 0 8 C0 5.36 0 2.72 0 0 Z " fill="#F424F0" transform="translate(157,104)"/>
<path d="M0 0 C0.99 0 1.98 0 3 0 C3.33 1.32 3.66 2.64 4 4 C2.02 4.99 2.02 4.99 0 6 C0 4.02 0 2.04 0 0 Z " fill="#F424EC" transform="translate(156,92)"/>
<path d="M0 0 C5.61 0 11.22 0 17 0 C17 0.33 17 0.66 17 1 C11.39 1 5.78 1 0 1 C0 0.67 0 0.34 0 0 Z " fill="#000000" transform="translate(525,82)"/>
<path d="M0 0 C5.28 0 10.56 0 16 0 C16 0.33 16 0.66 16 1 C10.72 1 5.44 1 0 1 C0 0.67 0 0.34 0 0 Z " fill="#000000" transform="translate(527,166)"/>
<path d="M0 0 C0.33 0 0.66 0 1 0 C1 4.62 1 9.24 1 14 C0.67 14 0.34 14 0 14 C0 9.38 0 4.76 0 0 Z " fill="#000000" transform="translate(342,133)"/>
<path d="M0 0 C0.33 0 0.66 0 1 0 C1 4.29 1 8.58 1 13 C0.67 13 0.34 13 0 13 C0 8.71 0 4.42 0 0 Z " fill="#000000" transform="translate(572,117)"/>
<path d="M0 0 C3.96 0 7.92 0 12 0 C12 0.33 12 0.66 12 1 C8.04 1 4.08 1 0 1 C0 0.67 0 0.34 0 0 Z " fill="#000000" transform="translate(303,82)"/>
<path d="M0 0 C1.98 1.65 3.96 3.3 6 5 C3 5 3 5 1.3125 3.625 C0 2 0 2 0 0 Z " fill="#000000" transform="translate(501,151)"/>
<path d="M0 0 C3.63 0 7.26 0 11 0 C11 0.33 11 0.66 11 1 C7.37 1 3.74 1 0 1 C0 0.67 0 0.34 0 0 Z " fill="#000000" transform="translate(258,82)"/>
<path d="M0 0 C3.3 0 6.6 0 10 0 C10 0.33 10 0.66 10 1 C6.7 1 3.4 1 0 1 C0 0.67 0 0.34 0 0 Z " fill="#000000" transform="translate(366,166)"/>
<path d="M0 0 C2.64 0 5.28 0 8 0 C8 0.33 8 0.66 8 1 C5.36 1 2.72 1 0 1 C0 0.67 0 0.34 0 0 Z " fill="#000000" transform="translate(383,82)"/>
<path d="M0 0 C2.64 0 5.28 0 8 0 C8 0.33 8 0.66 8 1 C5.36 1 2.72 1 0 1 C0 0.67 0 0.34 0 0 Z " fill="#000000" transform="translate(370,82)"/>
<path d="M0 0 C0.33 0 0.66 0 1 0 C1 2.31 1 4.62 1 7 C0.67 7 0.34 7 0 7 C0 4.69 0 2.38 0 0 Z " fill="#000000" transform="translate(491,121)"/>
<path d="M0 0 C0.33 0 0.66 0 1 0 C1 1.65 1 3.3 1 5 C0.34 4.67 -0.32 4.34 -1 4 C-0.67 2.68 -0.34 1.36 0 0 Z " fill="#D307F9" transform="translate(122,103)"/>
<path d="M0 0 C0.33 0 0.66 0 1 0 C1 1.98 1 3.96 1 6 C0.67 6 0.34 6 0 6 C0 4.02 0 2.04 0 0 Z " fill="#000000" transform="translate(492,129)"/>
<path d="M0 0 C0.33 0 0.66 0 1 0 C1 1.98 1 3.96 1 6 C0.67 6 0.34 6 0 6 C0 4.02 0 2.04 0 0 Z " fill="#000000" transform="translate(492,114)"/>
<path d="M0 0 C0.99 0.495 0.99 0.495 2 1 C1.67 2.32 1.34 3.64 1 5 C0.67 3.35 0.34 1.7 0 0 Z " fill="#BF08F5" transform="translate(120,107)"/>
<path d="M0 0 C1.65 0 3.3 0 5 0 C5 0.33 5 0.66 5 1 C3.35 1 1.7 1 0 1 C0 0.67 0 0.34 0 0 Z " fill="#000000" transform="translate(543,165)"/>
<path d="M0 0 C0.33 0 0.66 0 1 0 C1 1.65 1 3.3 1 5 C0.67 5 0.34 5 0 5 C0 3.35 0 1.7 0 0 Z " fill="#000000" transform="translate(570,145)"/>
<path d="M0 0 C1.65 0 3.3 0 5 0 C5 0.33 5 0.66 5 1 C3.35 1 1.7 1 0 1 C0 0.67 0 0.34 0 0 Z " fill="#D41ED0" transform="translate(130,82)"/>
<path d="M0 0 C4 1 4 1 4 1 Z " fill="#000000" transform="translate(523,165)"/>
<path d="M0 0 C4 1 4 1 4 1 Z " fill="#000000" transform="translate(376,165)"/>
<path d="M0 0 C4 1 4 1 4 1 Z " fill="#000000" transform="translate(361,165)"/>
<path d="M0 0 C4 1 4 1 4 1 Z " fill="#9D03FB" transform="translate(129,164)"/>
<path d="M0 0 C4 1 4 1 4 1 Z " fill="#6E0FD4" transform="translate(125,163)"/>
<path d="M0 0 C4 1 4 1 4 1 Z " fill="#640DCD" transform="translate(116,161)"/>
<path d="M0 0 C1 4 1 4 1 4 Z " fill="#000000" transform="translate(501,158)"/>
<path d="M0 0 C1 4 1 4 1 4 Z " fill="#8202F0" transform="translate(140,155)"/>
<path d="M0 0 C1 4 1 4 1 4 Z " fill="#6309C6" transform="translate(110,154)"/>
<path d="M0 0 C1 4 1 4 1 4 Z " fill="#880FD6" transform="translate(141,151)"/>
<path d="M0 0 C1 4 1 4 1 4 Z " fill="#BE06F9" transform="translate(142,147)"/>
<path d="M0 0 C1 4 1 4 1 4 Z " fill="#6413C9" transform="translate(112,145)"/>
<path d="M0 0 C1 4 1 4 1 4 Z " fill="#AB17DA" transform="translate(143,143)"/>
<path d="M0 0 C1 4 1 4 1 4 Z " fill="#A914F9" transform="translate(113,141)"/>
<path d="M0 0 C1 4 1 4 1 4 Z " fill="#C806F7" transform="translate(144,139)"/>
<path d="M0 0 C1 4 1 4 1 4 Z " fill="#8C0ED0" transform="translate(114,137)"/>
<path d="M0 0 C1 4 1 4 1 4 Z " fill="#000000" transform="translate(493,135)"/>
<path d="M0 0 C1 4 1 4 1 4 Z " fill="#8A0ECA" transform="translate(145,135)"/>
<path d="M0 0 C1 4 1 4 1 4 Z " fill="#BE01F6" transform="translate(115,133)"/>
<path d="M0 0 C4 1 4 1 4 1 Z " fill="#000000" transform="translate(381,131)"/>
<path d="M0 0 C1 4 1 4 1 4 Z " fill="#CC09F2" transform="translate(146,130)"/>
<path d="M0 0 C1 4 1 4 1 4 Z " fill="#A114D9" transform="translate(116,129)"/>
<path d="M0 0 C1 4 1 4 1 4 Z " fill="#B212DE" transform="translate(147,126)"/>
<path d="M0 0 C1 4 1 4 1 4 Z " fill="#8106E9" transform="translate(117,124)"/>
<path d="M0 0 C1 4 1 4 1 4 Z " fill="#C80FF6" transform="translate(148,122)"/>
<path d="M0 0 C1 4 1 4 1 4 Z " fill="#BA18DD" transform="translate(118,120)"/>
<path d="M0 0 C1 4 1 4 1 4 Z " fill="#A916CF" transform="translate(149,118)"/>
<path d="M0 0 C1 4 1 4 1 4 Z " fill="#CB07F9" transform="translate(119,116)"/>
<path d="M0 0 C1 4 1 4 1 4 Z " fill="#E008F6" transform="translate(150,114)"/>
<path d="M0 0 C1 4 1 4 1 4 Z " fill="#AD15EE" transform="translate(120,112)"/>
<path d="M0 0 C1 4 1 4 1 4 Z " fill="#000000" transform="translate(571,112)"/>
<path d="M0 0 C4 1 4 1 4 1 Z " fill="#000000" transform="translate(373,112)"/>
<path d="M0 0 C4 1 4 1 4 1 Z " fill="#000000" transform="translate(359,112)"/>
<path d="M0 0 C1 4 1 4 1 4 Z " fill="#000000" transform="translate(493,110)"/>
<path d="M0 0 C4 1 4 1 4 1 Z " fill="#000000" transform="translate(377,111)"/>
<path d="M0 0 C4 1 4 1 4 1 Z " fill="#000000" transform="translate(354,111)"/>
<path d="M0 0 C1 4 1 4 1 4 Z " fill="#B51ED2" transform="translate(151,110)"/>
<path d="M0 0 C4 1 4 1 4 1 Z " fill="#000000" transform="translate(381,110)"/>
<path d="M0 0 C4 1 4 1 4 1 Z " fill="#000000" transform="translate(350,110)"/>
<path d="M0 0 C1 4 1 4 1 4 Z " fill="#F013F9" transform="translate(152,105)"/>
<path d="M0 0 C1 4 1 4 1 4 Z " fill="#000000" transform="translate(338,102)"/>
<path d="M0 0 C1 4 1 4 1 4 Z " fill="#000000" transform="translate(415,101)"/>
<path d="M0 0 C1 4 1 4 1 4 Z " fill="#000000" transform="translate(498,87)"/>
<path d="M0 0 C1 4 1 4 1 4 Z " fill="#B914D6" transform="translate(126,87)"/>
<path d="M0 0 C4 1 4 1 4 1 Z " fill="#C40ECA" transform="translate(143,85)"/>
<path d="M0 0 C4 1 4 1 4 1 Z " fill="#D22CD2" transform="translate(139,84)"/>
<path d="M0 0 C4 1 4 1 4 1 Z " fill="#000000" transform="translate(366,83)"/>
<path d="M0 0 C4 1 4 1 4 1 Z " fill="#000000" transform="translate(315,83)"/>
<path d="M0 0 C4 1 4 1 4 1 Z " fill="#E70AED" transform="translate(135,83)"/>
<path d="M0 0 C3 1 3 1 3 1 Z " fill="#9D20DE" transform="translate(133,165)"/>
<path d="M0 0 C3 1 3 1 3 1 Z " fill="#000000" transform="translate(519,164)"/>
<path d="" fill="#6218D4" transform="translate(0,0)"/>
<path d="" fill="#7F06EA" transform="translate(0,0)"/>
<path d="" fill="#8F06F1" transform="translate(0,0)"/>
<path d="" fill="#000000" transform="translate(0,0)"/>
<path d="" fill="#000000" transform="translate(0,0)"/>
<path d="M0 0 C3 1 3 1 3 1 Z " fill="#000000" transform="translate(378,132)"/>
<path d="M0 0 C0.33 0.66 0.66 1.32 1 2 C0.34 1.67 -0.32 1.34 -1 1 C-0.67 0.67 -0.34 0.34 0 0 Z " fill="#000000" transform="translate(453,129)"/>
<path d="M0 0 C3 1 3 1 3 1 Z " fill="#000000" transform="translate(360,116)"/>
<path d="M0 0 C3 1 3 1 3 1 Z " fill="#000000" transform="translate(363,115)"/>
<path d="M0 0 C3 1 3 1 3 1 Z " fill="#000000" transform="translate(370,113)"/>
<path d="M0 0 C0.66 0 1.32 0 2 0 C1.67 0.66 1.34 1.32 1 2 C0.67 1.34 0.34 0.68 0 0 Z " fill="#000000" transform="translate(259,110)"/>
<path d="" fill="#000000" transform="translate(0,0)"/>
<path d="M0 0 C3 1 3 1 3 1 Z " fill="#000000" transform="translate(347,109)"/>
<path d="" fill="#000000" transform="translate(0,0)"/>
<path d="" fill="#000000" transform="translate(0,0)"/>
<path d="M0 0 C3 1 3 1 3 1 Z " fill="#000000" transform="translate(363,84)"/>
<path d="M0 0 C3 1 3 1 3 1 Z " fill="#000000" transform="translate(319,84)"/>
<path d="M0 0 C3 1 3 1 3 1 Z " fill="#000000" transform="translate(251,84)"/>
<path d="M0 0 C3 1 3 1 3 1 Z " fill="#000000" transform="translate(521,83)"/>
<path d="M0 0 C3 1 3 1 3 1 Z " fill="#000000" transform="translate(269,83)"/>
<path d="M0 0 C3 1 3 1 3 1 Z " fill="#000000" transform="translate(254,83)"/>
<path d="M0 0 C2 1 2 1 2 1 Z " fill="#000000" transform="translate(380,164)"/>
<path d="M0 0 C2 1 2 1 2 1 Z " fill="#000000" transform="translate(359,164)"/>
<path d="M0 0 C2 1 2 1 2 1 Z " fill="#000000" transform="translate(517,163)"/>
<path d="M0 0 C2 1 2 1 2 1 Z " fill="#000000" transform="translate(554,162)"/>
<path d="" fill="#000000" transform="translate(0,0)"/>
<path d="" fill="#000000" transform="translate(0,0)"/>
<path d="" fill="#000000" transform="translate(0,0)"/>
<path d="" fill="#000000" transform="translate(0,0)"/>
<path d="M0 0 C2 1 2 1 2 1 Z " fill="#000000" transform="translate(556,161)"/>
<path d="" fill="#000000" transform="translate(0,0)"/>
<path d="" fill="#6105E6" transform="translate(0,0)"/>
<path d="M0 0 C2 1 2 1 2 1 Z " fill="#7100E1" transform="translate(82,160)"/>
<path d="" fill="#6C11D3" transform="translate(0,0)"/>
<path d="M0 0 C2 1 2 1 2 1 Z " fill="#6006C5" transform="translate(80,159)"/>
<path d="M0 0 C2 1 2 1 2 1 Z " fill="#8710E9" transform="translate(78,158)"/>
<path d="" fill="#7010E4" transform="translate(0,0)"/>
<path d="" fill="#000000" transform="translate(0,0)"/>
<path d="" fill="#000000" transform="translate(0,0)"/>
<path d="" fill="#7B0CD6" transform="translate(0,0)"/>
<path d="" fill="#000000" transform="translate(0,0)"/>
<path d="" fill="#000000" transform="translate(0,0)"/>
<path d="" fill="#000000" transform="translate(0,0)"/>
<path d="" fill="#8C04EA" transform="translate(0,0)"/>
<path d="" fill="#000000" transform="translate(0,0)"/>
<path d="" fill="#000000" transform="translate(0,0)"/>
<path d="" fill="#000000" transform="translate(0,0)"/>
<path d="" fill="#810CD5" transform="translate(0,0)"/>
<path d="" fill="#000000" transform="translate(0,0)"/>
<path d="" fill="#000000" transform="translate(0,0)"/>
<path d="" fill="#8E07DC" transform="translate(0,0)"/>
<path d="" fill="#000000" transform="translate(0,0)"/>
<path d="" fill="#6F07C9" transform="translate(0,0)"/>
<path d="" fill="#000000" transform="translate(0,0)"/>
<path d="" fill="#000000" transform="translate(0,0)"/>
<path d="" fill="#A513DB" transform="translate(0,0)"/>
<path d="" fill="#620BBD" transform="translate(0,0)"/>
<path d="" fill="#000000" transform="translate(0,0)"/>
<path d="" fill="#000000" transform="translate(0,0)"/>
<path d="" fill="#000000" transform="translate(0,0)"/>
<path d="" fill="#AB10F7" transform="translate(0,0)"/>
<path d="" fill="#8824F0" transform="translate(0,0)"/>
<path d="" fill="#000000" transform="translate(0,0)"/>
<path d="" fill="#000000" transform="translate(0,0)"/>
<path d="" fill="#000000" transform="translate(0,0)"/>
<path d="" fill="#8D1CDC" transform="translate(0,0)"/>
<path d="" fill="#750BF4" transform="translate(0,0)"/>
<path d="" fill="#000000" transform="translate(0,0)"/>
<path d="" fill="#000000" transform="translate(0,0)"/>
<path d="" fill="#9C0EE3" transform="translate(0,0)"/>
<path d="" fill="#000000" transform="translate(0,0)"/>
<path d="" fill="#740CE3" transform="translate(0,0)"/>
<path d="" fill="#000000" transform="translate(0,0)"/>
<path d="" fill="#6E0CC5" transform="translate(0,0)"/>
<path d="" fill="#000000" transform="translate(0,0)"/>
<path d="" fill="#6500D2" transform="translate(0,0)"/>
<path d="" fill="#5F04D8" transform="translate(0,0)"/>
<path d="" fill="#000000" transform="translate(0,0)"/>
<path d="" fill="#750BCA" transform="translate(0,0)"/>
<path d="" fill="#6508C1" transform="translate(0,0)"/>
<path d="" fill="#000000" transform="translate(0,0)"/>
<path d="" fill="#000000" transform="translate(0,0)"/>
<path d="" fill="#7504D3" transform="translate(0,0)"/>
<path d="" fill="#750AEA" transform="translate(0,0)"/>
<path d="" fill="#000000" transform="translate(0,0)"/>
<path d="" fill="#000000" transform="translate(0,0)"/>
<path d="" fill="#000000" transform="translate(0,0)"/>
<path d="" fill="#6310A1" transform="translate(0,0)"/>
<path d="" fill="#5E02C2" transform="translate(0,0)"/>
<path d="" fill="#000000" transform="translate(0,0)"/>
<path d="" fill="#7010E5" transform="translate(0,0)"/>
<path d="" fill="#000000" transform="translate(0,0)"/>
<path d="" fill="#B41DFF" transform="translate(0,0)"/>
<path d="" fill="#000000" transform="translate(0,0)"/>
<path d="" fill="#9F23DC" transform="translate(0,0)"/>
<path d="" fill="#AD0EEB" transform="translate(0,0)"/>
<path d="" fill="#000000" transform="translate(0,0)"/>
<path d="" fill="#A90DE5" transform="translate(0,0)"/>
<path d="" fill="#B908FF" transform="translate(0,0)"/>
<path d="" fill="#000000" transform="translate(0,0)"/>
<path d="" fill="#9121E1" transform="translate(0,0)"/>
<path d="" fill="#A203D1" transform="translate(0,0)"/>
<path d="" fill="#000000" transform="translate(0,0)"/>
<path d="" fill="#9816F5" transform="translate(0,0)"/>
<path d="" fill="#BF00CF" transform="translate(0,0)"/>
<path d="" fill="#A218DF" transform="translate(0,0)"/>
<path d="" fill="#000000" transform="translate(0,0)"/>
<path d="M0 0 C2 1 2 1 2 1 Z " fill="#000000" transform="translate(356,118)"/>
<path d="" fill="#CE0BE8" transform="translate(0,0)"/>
<path d="M0 0 C2 1 2 1 2 1 Z " fill="#000000" transform="translate(358,117)"/>
<path d="" fill="#9208E6" transform="translate(0,0)"/>
<path d="" fill="#000000" transform="translate(0,0)"/>
<path d="" fill="#D305FF" transform="translate(0,0)"/>
<path d="" fill="#8F09D0" transform="translate(0,0)"/>
<path d="" fill="#000000" transform="translate(0,0)"/>
<path d="" fill="#000000" transform="translate(0,0)"/>
<path d="" fill="#000000" transform="translate(0,0)"/>
<path d="" fill="#960BDF" transform="translate(0,0)"/>
<path d="" fill="#000000" transform="translate(0,0)"/>
<path d="" fill="#000000" transform="translate(0,0)"/>
<path d="" fill="#8406EC" transform="translate(0,0)"/>
<path d="" fill="#9F02EE" transform="translate(0,0)"/>
<path d="" fill="#000000" transform="translate(0,0)"/>
<path d="" fill="#7813D0" transform="translate(0,0)"/>
<path d="" fill="#000000" transform="translate(0,0)"/>
<path d="" fill="#AB00E8" transform="translate(0,0)"/>
<path d="" fill="#000000" transform="translate(0,0)"/>
<path d="" fill="#000000" transform="translate(0,0)"/>
<path d="" fill="#7B0FDE" transform="translate(0,0)"/>
<path d="M0 0 C2 1 2 1 2 1 Z " fill="#000000" transform="translate(301,108)"/>
<path d="M0 0 C2 1 2 1 2 1 Z " fill="#000000" transform="translate(253,108)"/>
<path d="" fill="#000000" transform="translate(0,0)"/>
<path d="" fill="#7A15CA" transform="translate(0,0)"/>
<path d="M0 0 C2 1 2 1 2 1 Z " fill="#000000" transform="translate(525,106)"/>
<path d="" fill="#000000" transform="translate(0,0)"/>
<path d="" fill="#000000" transform="translate(0,0)"/>
<path d="" fill="#7B12E1" transform="translate(0,0)"/>
<path d="" fill="#000000" transform="translate(0,0)"/>
<path d="" fill="#000000" transform="translate(0,0)"/>
<path d="" fill="#9812DC" transform="translate(0,0)"/>
<path d="" fill="#CD15F2" transform="translate(0,0)"/>
<path d="" fill="#000000" transform="translate(0,0)"/>
<path d="" fill="#000000" transform="translate(0,0)"/>
<path d="" fill="#000000" transform="translate(0,0)"/>
<path d="" fill="#000000" transform="translate(0,0)"/>
<path d="" fill="#A709F1" transform="translate(0,0)"/>
<path d="" fill="#000000" transform="translate(0,0)"/>
<path d="" fill="#000000" transform="translate(0,0)"/>
<path d="" fill="#000000" transform="translate(0,0)"/>
<path d="" fill="#9916D3" transform="translate(0,0)"/>
<path d="" fill="#000000" transform="translate(0,0)"/>
<path d="" fill="#000000" transform="translate(0,0)"/>
<path d="" fill="#000000" transform="translate(0,0)"/>
<path d="" fill="#5B0494" transform="translate(0,0)"/>
<path d="" fill="#000000" transform="translate(0,0)"/>
<path d="" fill="#000000" transform="translate(0,0)"/>
<path d="" fill="#6909AE" transform="translate(0,0)"/>
<path d="" fill="#6309F7" transform="translate(0,0)"/>
<path d="" fill="#6605CF" transform="translate(0,0)"/>
<path d="" fill="#000000" transform="translate(0,0)"/>
<path d="" fill="#000000" transform="translate(0,0)"/>
<path d="M0 0 C2 1 2 1 2 1 Z " fill="#9C15CA" transform="translate(116,88)"/>
<path d="" fill="#C603F5" transform="translate(0,0)"/>
<path d="M0 0 C2 1 2 1 2 1 Z " fill="#C012EE" transform="translate(114,87)"/>
<path d="" fill="#DC0AFF" transform="translate(0,0)"/>
<path d="M0 0 C2 1 2 1 2 1 Z " fill="#AE1AE0" transform="translate(112,86)"/>
<path d="" fill="#9B15E3" transform="translate(0,0)"/>
<path d="M0 0 C2 1 2 1 2 1 Z " fill="#000000" transform="translate(516,85)"/>
<path d="M0 0 C2 1 2 1 2 1 Z " fill="#000000" transform="translate(361,85)"/>
<path d="M0 0 C2 1 2 1 2 1 Z " fill="#000000" transform="translate(294,85)"/>
<path d="M0 0 C2 1 2 1 2 1 Z " fill="#000000" transform="translate(296,84)"/>
<path d="M0 0 C2 1 2 1 2 1 Z " fill="#AC13DF" transform="translate(104,82)"/>
<path d="M0 0 C2 1 2 1 2 1 Z " fill="#8918F0" transform="translate(101,82)"/>
<path d="" fill="#000000" transform="translate(0,0)"/>
<path d="" fill="#000000" transform="translate(0,0)"/>
<path d="" fill="#000000" transform="translate(0,0)"/>
<path d="" fill="#000000" transform="translate(0,0)"/>
<path d="" fill="#000000" transform="translate(0,0)"/>
<path d="" fill="#000000" transform="translate(0,0)"/>
<path d="" fill="#AF0EF8" transform="translate(0,0)"/>
<path d="" fill="#B608F7" transform="translate(0,0)"/>
<path d="" fill="#000000" transform="translate(0,0)"/>
<path d="" fill="#000000" transform="translate(0,0)"/>
<path d="" fill="#000000" transform="translate(0,0)"/>
<path d="" fill="#000000" transform="translate(0,0)"/>
<path d="" fill="#000000" transform="translate(0,0)"/>
<path d="" fill="#000000" transform="translate(0,0)"/>
<path d="" fill="#CA03FF" transform="translate(0,0)"/>
<path d="" fill="#D500F2" transform="translate(0,0)"/>
<path d="" fill="#000000" transform="translate(0,0)"/>
<path d="" fill="#000000" transform="translate(0,0)"/>
<path d="" fill="#000000" transform="translate(0,0)"/>
<path d="" fill="#000000" transform="translate(0,0)"/>
<path d="" fill="#000000" transform="translate(0,0)"/>
<path d="" fill="#000000" transform="translate(0,0)"/>
<path d="" fill="#2F00DD" transform="translate(0,0)"/>
<path d="" fill="#000000" transform="translate(0,0)"/>
<path d="" fill="#000000" transform="translate(0,0)"/>
<path d="" fill="#000000" transform="translate(0,0)"/>
<path d="" fill="#000000" transform="translate(0,0)"/>
<path d="" fill="#000000" transform="translate(0,0)"/>
<path d="" fill="#000000" transform="translate(0,0)"/>
<path d="" fill="#000000" transform="translate(0,0)"/>
<path d="" fill="#000000" transform="translate(0,0)"/>
<path d="" fill="#000000" transform="translate(0,0)"/>
<path d="" fill="#9C15ED" transform="translate(0,0)"/>
<path d="" fill="#000000" transform="translate(0,0)"/>
<path d="" fill="#9605DF" transform="translate(0,0)"/>
<path d="" fill="#000000" transform="translate(0,0)"/>
<path d="" fill="#000000" transform="translate(0,0)"/>
<path d="" fill="#000000" transform="translate(0,0)"/>
<path d="" fill="#000000" transform="translate(0,0)"/>
<path d="" fill="#000000" transform="translate(0,0)"/>
<path d="" fill="#000000" transform="translate(0,0)"/>
<path d="" fill="#000000" transform="translate(0,0)"/>
<path d="" fill="#000000" transform="translate(0,0)"/>
<path d="" fill="#000000" transform="translate(0,0)"/>
<path d="" fill="#000000" transform="translate(0,0)"/>
<path d="" fill="#000000" transform="translate(0,0)"/>
<path d="" fill="#000000" transform="translate(0,0)"/>
<path d="" fill="#000000" transform="translate(0,0)"/>
<path d="" fill="#000000" transform="translate(0,0)"/>
<path d="" fill="#000000" transform="translate(0,0)"/>
<path d="" fill="#000000" transform="translate(0,0)"/>
<path d="" fill="#000000" transform="translate(0,0)"/>
<path d="" fill="#000000" transform="translate(0,0)"/>
<path d="" fill="#000000" transform="translate(0,0)"/>
<path d="" fill="#000000" transform="translate(0,0)"/>
<path d="" fill="#000000" transform="translate(0,0)"/>
<path d="" fill="#000000" transform="translate(0,0)"/>
<path d="" fill="#000000" transform="translate(0,0)"/>
<path d="" fill="#000000" transform="translate(0,0)"/>
<path d="" fill="#000000" transform="translate(0,0)"/>
<path d="" fill="#000000" transform="translate(0,0)"/>
<path d="" fill="#000000" transform="translate(0,0)"/>
<path d="" fill="#000000" transform="translate(0,0)"/>
<path d="" fill="#000000" transform="translate(0,0)"/>
<path d="" fill="#000000" transform="translate(0,0)"/>
<path d="" fill="#000000" transform="translate(0,0)"/>
<path d="" fill="#000000" transform="translate(0,0)"/>
<path d="" fill="#000000" transform="translate(0,0)"/>
<path d="" fill="#000000" transform="translate(0,0)"/>
<path d="" fill="#000000" transform="translate(0,0)"/>
<path d="" fill="#000000" transform="translate(0,0)"/>
<path d="" fill="#000000" transform="translate(0,0)"/>
<path d="" fill="#000000" transform="translate(0,0)"/>
<path d="" fill="#000000" transform="translate(0,0)"/>
<path d="" fill="#000000" transform="translate(0,0)"/>
<path d="" fill="#000000" transform="translate(0,0)"/>
<path d="" fill="#000000" transform="translate(0,0)"/>
<path d="" fill="#000000" transform="translate(0,0)"/>
<path d="" fill="#000000" transform="translate(0,0)"/>
<path d="" fill="#000000" transform="translate(0,0)"/>
<path d="" fill="#000000" transform="translate(0,0)"/>
<path d="" fill="#000000" transform="translate(0,0)"/>
<path d="" fill="#000000" transform="translate(0,0)"/>
<path d="" fill="#000000" transform="translate(0,0)"/>
<path d="" fill="#000000" transform="translate(0,0)"/>
<path d="" fill="#000000" transform="translate(0,0)"/>
<path d="" fill="#000000" transform="translate(0,0)"/>
<path d="" fill="#000000" transform="translate(0,0)"/>
<path d="" fill="#000000" transform="translate(0,0)"/>
<path d="" fill="#000000" transform="translate(0,0)"/>
<path d="" fill="#000000" transform="translate(0,0)"/>
<path d="" fill="#000000" transform="translate(0,0)"/>
<path d="" fill="#000000" transform="translate(0,0)"/>
<path d="" fill="#000000" transform="translate(0,0)"/>
<path d="" fill="#000000" transform="translate(0,0)"/>
<path d="" fill="#000000" transform="translate(0,0)"/>
<path d="" fill="#000000" transform="translate(0,0)"/>
<path d="" fill="#000000" transform="translate(0,0)"/>
<path d="" fill="#000000" transform="translate(0,0)"/>
<path d="" fill="#000000" transform="translate(0,0)"/>
<path d="" fill="#000000" transform="translate(0,0)"/>
<path d="" fill="#000000" transform="translate(0,0)"/>
<path d="" fill="#000000" transform="translate(0,0)"/>
<path d="" fill="#000000" transform="translate(0,0)"/>
<path d="" fill="#000000" transform="translate(0,0)"/>
<path d="" fill="#000000" transform="translate(0,0)"/>
<path d="" fill="#000000" transform="translate(0,0)"/>
<path d="" fill="#000000" transform="translate(0,0)"/>
<path d="" fill="#000000" transform="translate(0,0)"/>
<path d="" fill="#000000" transform="translate(0,0)"/>
<path d="" fill="#000000" transform="translate(0,0)"/>
<path d="" fill="#000000" transform="translate(0,0)"/>
<path d="" fill="#000000" transform="translate(0,0)"/>
<path d="" fill="#000000" transform="translate(0,0)"/>
<path d="" fill="#000000" transform="translate(0,0)"/>
<path d="" fill="#000000" transform="translate(0,0)"/>
<path d="" fill="#000000" transform="translate(0,0)"/>
<path d="" fill="#000000" transform="translate(0,0)"/>
<path d="" fill="#000000" transform="translate(0,0)"/>
<path d="" fill="#000000" transform="translate(0,0)"/>
<path d="" fill="#000000" transform="translate(0,0)"/>
<path d="" fill="#000000" transform="translate(0,0)"/>
<path d="" fill="#000000" transform="translate(0,0)"/>
<path d="" fill="#000000" transform="translate(0,0)"/>
<path d="" fill="#000000" transform="translate(0,0)"/>
<path d="" fill="#000000" transform="translate(0,0)"/>
<path d="" fill="#000000" transform="translate(0,0)"/>
<path d="" fill="#000000" transform="translate(0,0)"/>
<path d="" fill="#000000" transform="translate(0,0)"/>
<path d="" fill="#000000" transform="translate(0,0)"/>
<path d="" fill="#000000" transform="translate(0,0)"/>
<path d="" fill="#000000" transform="translate(0,0)"/>
<path d="" fill="#000000" transform="translate(0,0)"/>
<path d="" fill="#000000" transform="translate(0,0)"/>
<path d="" fill="#000000" transform="translate(0,0)"/>
<path d="" fill="#EE1ECD" transform="translate(0,0)"/>
<path d="" fill="#DA15FB" transform="translate(0,0)"/>
<path d="" fill="#8417D9" transform="translate(0,0)"/>
<path d="" fill="#F30DEC" transform="translate(0,0)"/>
<path d="" fill="#6500A4" transform="translate(0,0)"/>
<path d="" fill="#2B00CD" transform="translate(0,0)"/>
<path d="" fill="#000000" transform="translate(0,0)"/>
<path d="" fill="#000000" transform="translate(0,0)"/>
</svg>
