<?xml version="1.0" encoding="UTF-8"?>
<svg version="1.1" xmlns="http://www.w3.org/2000/svg" width="28" height="28">
<path d="M0 0 C1.1653125 -0.00128906 2.330625 -0.00257812 3.53125 -0.00390625 C4.7584375 -0.00003906 5.985625 0.00382812 7.25 0.0078125 C9.09078125 0.00201172 9.09078125 0.00201172 10.96875 -0.00390625 C12.71671875 -0.00197266 12.71671875 -0.00197266 14.5 0 C15.57765625 0.00112793 16.6553125 0.00225586 17.765625 0.00341797 C20.25 0.1328125 20.25 0.1328125 21.25 1.1328125 C21.34971786 3.04739532 21.38080589 4.96563567 21.3828125 6.8828125 C21.38474609 8.63078125 21.38474609 8.63078125 21.38671875 10.4140625 C21.38285156 11.64125 21.37898438 12.8684375 21.375 14.1328125 C21.38080078 15.97359375 21.38080078 15.97359375 21.38671875 17.8515625 C21.38542969 19.016875 21.38414063 20.1821875 21.3828125 21.3828125 C21.38168457 22.46046875 21.38055664 23.538125 21.37939453 24.6484375 C21.25 27.1328125 21.25 27.1328125 20.25 28.1328125 C18.33541718 28.23253036 16.41717683 28.26361839 14.5 28.265625 C13.3346875 28.26691406 12.169375 28.26820312 10.96875 28.26953125 C9.7415625 28.26566406 8.514375 28.26179688 7.25 28.2578125 C5.40921875 28.26361328 5.40921875 28.26361328 3.53125 28.26953125 C2.3659375 28.26824219 1.200625 28.26695313 0 28.265625 C-1.07765625 28.26449707 -2.1553125 28.26336914 -3.265625 28.26220703 C-5.75 28.1328125 -5.75 28.1328125 -6.75 27.1328125 C-6.84971786 25.21822968 -6.88080589 23.29998933 -6.8828125 21.3828125 C-6.88410156 20.2175 -6.88539063 19.0521875 -6.88671875 17.8515625 C-6.88285156 16.624375 -6.87898437 15.3971875 -6.875 14.1328125 C-6.87886719 12.905625 -6.88273438 11.6784375 -6.88671875 10.4140625 C-6.88542969 9.24875 -6.88414062 8.0834375 -6.8828125 6.8828125 C-6.88168457 5.80515625 -6.88055664 4.7275 -6.87939453 3.6171875 C-6.6362729 -1.05074778 -4.09391107 0.00428489 0 0 Z M-4.75 10.1328125 C-4.82148199 11.48525167 -4.83399454 12.84115617 -4.8125 14.1953125 C-4.791875 15.4946875 -4.77125 16.7940625 -4.75 18.1328125 C-3.76 18.1328125 -2.77 18.1328125 -1.75 18.1328125 C-1.62625 17.1634375 -1.5025 16.1940625 -1.375 15.1953125 C-1.16875 14.1846875 -0.9625 13.1740625 -0.75 12.1328125 C-0.09 11.8028125 0.57 11.4728125 1.25 11.1328125 C1.25 13.4428125 1.25 15.7528125 1.25 18.1328125 C2.24 18.1328125 3.23 18.1328125 4.25 18.1328125 C4.37375 17.1634375 4.4975 16.1940625 4.625 15.1953125 C4.83125 14.1846875 5.0375 13.1740625 5.25 12.1328125 C5.91 11.8028125 6.57 11.4728125 7.25 11.1328125 C7.25 13.4428125 7.25 15.7528125 7.25 18.1328125 C8.24 18.1328125 9.23 18.1328125 10.25 18.1328125 C10.48428313 13.3430804 10.48428313 13.3430804 8.25 9.1328125 C5.38948767 8.72962083 5.38948767 8.72962083 2.1875 8.8828125 C1.10339844 8.89828125 0.01929688 8.91375 -1.09765625 8.9296875 C-3.67151708 8.83731362 -3.67151708 8.83731362 -4.75 10.1328125 Z M13.25 9.1328125 C12.59 10.4528125 11.93 11.7728125 11.25 13.1328125 C13.725 14.6178125 13.725 14.6178125 16.25 16.1328125 C14.6 16.4628125 12.95 16.7928125 11.25 17.1328125 C11.58 17.7928125 11.91 18.4528125 12.25 19.1328125 C13.9 19.1328125 15.55 19.1328125 17.25 19.1328125 C17.91 17.8128125 18.57 16.4928125 19.25 15.1328125 C18.59 14.4728125 17.93 13.8128125 17.25 13.1328125 C16.26 13.1328125 15.27 13.1328125 14.25 13.1328125 C14.25 12.4728125 14.25 11.8128125 14.25 11.1328125 C15.57 11.1328125 16.89 11.1328125 18.25 11.1328125 C18.25 10.4728125 18.25 9.8128125 18.25 9.1328125 C16.6 9.1328125 14.95 9.1328125 13.25 9.1328125 Z " fill="#FFFFFF" transform="translate(6.75,-0.1328125)"/>
</svg>
