<?xml version="1.0" encoding="UTF-8"?>
<svg version="1.1" xmlns="http://www.w3.org/2000/svg" width="225" height="225">
<path d="M0 0 C74.25 0 148.5 0 225 0 C225 74.25 225 148.5 225 225 C150.75 225 76.5 225 0 225 C0 150.75 0 76.5 0 0 Z " fill="#E84A70" transform="translate(0,0)"/>
<path d="M0 0 C4.1796989 2.8497947 7.11864324 5.98092971 8.75 10.875 C9.39566167 16.36312417 8.36968322 19.64729839 5.2890625 24.0703125 C2.14104692 27.76164041 -0.7928517 29.64946465 -5.67578125 30.09765625 C-11.34160035 29.88271622 -14.75513314 28.39544041 -18.875 24.54296875 C-20.34970533 22.75405064 -21.24636846 20.95651679 -22.25 18.875 C-25.49969769 18.75861964 -28.7488583 18.68769419 -32 18.625 C-32.92039062 18.59148437 -33.84078125 18.55796875 -34.7890625 18.5234375 C-40.12308892 18.38188344 -40.12308892 18.38188344 -44.82421875 20.609375 C-46.31162132 22.9729188 -46.9032758 24.62802374 -47.3125 27.375 C-47.84720403 30.37719144 -48.09221487 31.6721334 -50 34.125 C-50.4125 34.7025 -50.825 35.28 -51.25 35.875 C-50.555956 38.39879635 -49.50858665 40.40631169 -48.25 42.6875 C-47.00451552 45.4119973 -46.43037064 48.14646035 -45.8125 51.0703125 C-45.33250081 53.10227391 -45.33250081 53.10227391 -43.25 54.875 C-41.26178687 55.27264263 -39.26055661 55.61275349 -37.25 55.875 C-36.940625 54.7921875 -36.940625 54.7921875 -36.625 53.6875 C-34.59230405 49.52971282 -31.42179512 46.96089756 -27.25 44.875 C-20.73176623 44.06519906 -16.51489392 44.95213787 -11.25 48.875 C-7.9873043 52.38867229 -6.97061694 55.12261081 -6.75 59.8125 C-6.9897495 64.95551351 -8.07693925 67.80697339 -11.25 71.875 C-15.16453767 75.2147448 -19.13135447 76.5563166 -24.265625 76.2578125 C-29.4225947 75.26296402 -32.49963113 72.83701138 -35.6875 68.75 C-37.25 65.875 -37.25 65.875 -37.25 63.875 C-38.9825 64.0915625 -38.9825 64.0915625 -40.75 64.3125 C-45.70437306 64.33013122 -48.18576805 62.09299995 -51.625 58.734375 C-54.09470347 55.9084643 -54.90159262 53.46595759 -55.69140625 49.859375 C-56.63455975 45.03710493 -56.63455975 45.03710493 -60.25 41.875 C-62.52912938 41.42105448 -62.52912938 41.42105448 -64.9375 41.25 C-65.74574219 41.17523438 -66.55398437 41.10046875 -67.38671875 41.0234375 C-68.00160156 40.97445312 -68.61648437 40.92546875 -69.25 40.875 C-69.476875 41.7825 -69.70375 42.69 -69.9375 43.625 C-71.76733482 48.15601955 -74.38229863 49.78550753 -78.5 52.1875 C-82.61954686 53.21738672 -86.17227548 53.08089118 -90.25 51.875 C-94.47441603 49.27965934 -97.21813046 46.40008144 -99.25 41.875 C-103.28961542 41.46048438 -103.28961542 41.46048438 -107.25 41.875 C-109.53834023 44.59888597 -109.53834023 44.59888597 -111.25 47.875 C-114.92316832 51.18981043 -117.48074155 52.66685195 -122.4375 53.25 C-127.97878397 52.70495567 -132.0209841 50.50361539 -135.64453125 46.23046875 C-138.28619211 42.09528938 -138.86134991 38.67846357 -138.25 33.875 C-136.20682161 28.19950447 -132.65252559 24.57626279 -127.25 21.875 C-120.7142852 21.06302728 -116.57821475 22.03868538 -111.25 25.875 C-108.7685129 28.51658305 -108.25 29.20673827 -108.25 32.875 C-104.95 32.875 -101.65 32.875 -98.25 32.875 C-97.92 31.555 -97.59 30.235 -97.25 28.875 C-93.98475579 25.16850657 -91.08271529 22.31793366 -86.1015625 21.5390625 C-80.62211733 21.44293188 -77.55225474 22.17305987 -73.25 25.875 C-69.25 30.29605263 -69.25 30.29605263 -69.25 32.875 C-67.64479996 32.81476735 -66.04065673 32.72591401 -64.4375 32.625 C-63.54417969 32.57859375 -62.65085937 32.5321875 -61.73046875 32.484375 C-59.13906722 32.07890321 -59.13906722 32.07890321 -57.484375 30.0703125 C-56.01037483 27.44883119 -55.49912603 24.80971617 -54.828125 21.8984375 C-53.50057822 17.25202378 -51.12843381 14.50936046 -47.26953125 11.72265625 C-41.83581154 8.72488814 -35.8402426 9.46202367 -29.8125 9.65039062 C-24.76222304 9.75886557 -24.76222304 9.75886557 -20.56835938 7.34008789 C-19.2223802 5.4958873 -19.2223802 5.4958873 -18.19873047 3.57128906 C-14.52423443 -2.99855101 -6.11699191 -2.11742028 0 0 Z " fill="#FEF8F9" transform="translate(177.25,75.125)"/>
<path d="M0 0 C2.5 2.0625 2.5 2.0625 4 5 C4 8.8137751 3.84985071 11.02424548 1.3125 13.9375 C-1.73602877 15.33817538 -3.67926952 15.4842732 -7 15 C-9.375 13.4375 -9.375 13.4375 -11 11 C-11.56288002 7.05983987 -11.60396028 4.94217804 -9.4375 1.5625 C-6.03280512 -0.61999672 -3.96569988 -0.63734462 0 0 Z " fill="#EA4C72" transform="translate(97,105)"/>
<path d="M0 0 C3.5 0.5625 3.5 0.5625 5.9375 2.125 C8.08016848 5.46756283 7.99573337 7.66745209 7.5 11.5625 C6.4375 13.4375 6.4375 13.4375 4.5 14.5625 C0.91298371 15.47555869 -1.41616747 16.01885054 -4.875 14.5625 C-7.2968187 11.58180006 -7.5 9.36534671 -7.5 5.5625 C-5.47546599 1.59778757 -4.42267232 0.71078662 0 0 Z " fill="#EA4C72" transform="translate(154.5,127.4375)"/>
<path d="M0 0 C2.5 2.0625 2.5 2.0625 4 5 C4 8.80284671 3.7968187 11.01930006 1.375 14 C-2.08383253 15.45635054 -4.41298371 14.91305869 -8 14 C-9.9375 12.875 -9.9375 12.875 -11 11 C-11.49573337 7.10495209 -11.58016848 4.90506283 -9.4375 1.5625 C-6.03280512 -0.61999672 -3.96569988 -0.63734462 0 0 Z " fill="#EA4C72" transform="translate(174,82)"/>
<path d="M0 0 C2.4375 1.5625 2.4375 1.5625 4 4 C4.5625 7.5 4.5625 7.5 4 11 C1.9375 13.5 1.9375 13.5 -1 15 C-4.625 15.0625 -4.625 15.0625 -8 14 C-10.59393856 11.1628797 -11.02858292 9.71457298 -10.875 5.875 C-9.02054759 -0.21820078 -6.22519856 -0.76449807 0 0 Z " fill="#EA4B71" transform="translate(58,105)"/>
</svg>
