<?xml version="1.0" encoding="UTF-8"?>
<svg version="1.1" xmlns="http://www.w3.org/2000/svg" width="28" height="28">
<path d="M0 0 C9.24 0 18.48 0 28 0 C28 9.24 28 18.48 28 28 C18.76 28 9.52 28 0 28 C0 18.76 0 9.52 0 0 Z " fill="#FEFDFC" transform="translate(0,0)"/>
<path d="M0 0 C3.27081471 -0.02902429 6.5415963 -0.04680684 9.8125 -0.0625 C10.74126953 -0.07087891 11.67003906 -0.07925781 12.62695312 -0.08789062 C13.51962891 -0.09111328 14.41230469 -0.09433594 15.33203125 -0.09765625 C16.56530151 -0.10551147 16.56530151 -0.10551147 17.82348633 -0.11352539 C20 -0 20 -0 23 1 C23 2.65 23 4.3 23 6 C20.43936575 6.51212685 17.87984582 7.02235427 15.3125 7.5 C12.98843226 7.90241258 12.98843226 7.90241258 11 9 C10.30906104 11.57951874 10.30906104 11.57951874 9.875 14.5625 C9.62363281 16.08037109 9.62363281 16.08037109 9.3671875 17.62890625 C9.24601563 18.41136719 9.12484375 19.19382812 9 20 C8.01 20.33 7.02 20.66 6 21 C6 20.34 6 19.68 6 19 C5.34 18.67 4.68 18.34 4 18 C4.33 18.99 4.66 19.98 5 21 C4.34 21 3.68 21 3 21 C2.80083984 20.04287109 2.80083984 20.04287109 2.59765625 19.06640625 C2.42105469 18.24011719 2.24445313 17.41382812 2.0625 16.5625 C1.88847656 15.73878906 1.71445312 14.91507813 1.53515625 14.06640625 C1.19247006 12.02338796 1.19247006 12.02338796 0 11 C-0.07226502 9.14712498 -0.0838122 7.29166122 -0.0625 5.4375 C-0.05347656 4.42558594 -0.04445312 3.41367187 -0.03515625 2.37109375 C-0.02355469 1.58863281 -0.01195312 0.80617187 0 0 Z " fill="#F3E4CA" transform="translate(0,0)"/>
<path d="M0 0 C0.99 0.33 1.98 0.66 3 1 C2 4 2 4 0 6 C0.144375 6.556875 0.28875 7.11375 0.4375 7.6875 C1.22936513 10.94294555 0.56547412 13.73281617 0 17 C1.32 17.33 2.64 17.66 4 18 C4 18.99 4 19.98 4 21 C-1.28 21 -6.56 21 -12 21 C-12 15.39 -12 9.78 -12 4 C-11.01 4.495 -11.01 4.495 -10 5 C-9.5859375 7.06640625 -9.5859375 7.06640625 -9.375 9.5625 C-9.30023438 10.38878906 -9.22546875 11.21507812 -9.1484375 12.06640625 C-9.07496094 13.02353516 -9.07496094 13.02353516 -9 14 C-8.67 13.01 -8.34 12.02 -8 11 C-4.125 11.875 -4.125 11.875 -3 13 C-3.061875 11.96875 -3.12375 10.9375 -3.1875 9.875 C-2.98864405 5.76531027 -2.05532197 3.51117504 0 0 Z " fill="#FDF6EA" transform="translate(12,7)"/>
<path d="M0 0 C0.99 0 1.98 0 3 0 C3 0.66 3 1.32 3 2 C4.32 2.33 5.64 2.66 7 3 C6.01 3.495 6.01 3.495 5 4 C4.30906104 6.57951874 4.30906104 6.57951874 3.875 9.5625 C3.62363281 11.08037109 3.62363281 11.08037109 3.3671875 12.62890625 C3.24601563 13.41136719 3.12484375 14.19382812 3 15 C2.01 15.33 1.02 15.66 0 16 C0 15.34 0 14.68 0 14 C-0.66 13.67 -1.32 13.34 -2 13 C-1.67 13.99 -1.34 14.98 -1 16 C-1.66 16 -2.32 16 -3 16 C-3.13277344 15.37351562 -3.26554688 14.74703125 -3.40234375 14.1015625 C-3.57894531 13.28429688 -3.75554687 12.46703125 -3.9375 11.625 C-4.11152344 10.81289062 -4.28554687 10.00078125 -4.46484375 9.1640625 C-4.92330693 6.970537 -4.92330693 6.970537 -6 5 C-5.0625 2.875 -5.0625 2.875 -4 1 C-2.68 1.33 -1.36 1.66 0 2 C0 1.34 0 0.68 0 0 Z " fill="#F5E8CD" transform="translate(6,5)"/>
<path d="M0 0 C0.99 0.495 0.99 0.495 2 1 C2.4140625 3.28515625 2.4140625 3.28515625 2.625 6.0625 C2.69976562 6.98160156 2.77453125 7.90070312 2.8515625 8.84765625 C2.92503906 9.91306641 2.92503906 9.91306641 3 11 C5.475 11.99 5.475 11.99 8 13 C8 13.66 8 14.32 8 15 C10.31 15.33 12.62 15.66 15 16 C15 16.33 15 16.66 15 17 C10.05 17 5.1 17 0 17 C0 11.39 0 5.78 0 0 Z " fill="#FDFDF8" transform="translate(0,11)"/>
<path d="M0 0 C3.63 0 7.26 0 11 0 C10.67 1.65 10.34 3.3 10 5 C10.66 5 11.32 5 12 5 C12 5.66 12 6.32 12 7 C11.01 7 10.02 7 9 7 C9 6.34 9 5.68 9 5 C8.01 5 7.02 5 6 5 C6 5.66 6 6.32 6 7 C4.68 6.67 3.36 6.34 2 6 C1.34 7.32 0.68 8.64 0 10 C0 6.7 0 3.4 0 0 Z " fill="#FCF8EB" transform="translate(0,0)"/>
<path d="M0 0 C0 0.66 0 1.32 0 2 C1.98 2.66 3.96 3.32 6 4 C5.67 4.99 5.34 5.98 5 7 C-1.75 5.25 -1.75 5.25 -4 3 C-4.33 2.34 -4.66 1.68 -5 1 C-2 0 -2 0 0 0 Z " fill="#EFE6D9" transform="translate(10,21)"/>
<path d="M0 0 C2.31 0.33 4.62 0.66 7 1 C6.67 2.32 6.34 3.64 6 5 C4.02 5 2.04 5 0 5 C0 3.35 0 1.7 0 0 Z " fill="#EAD9B6" transform="translate(3,10)"/>
<path d="M0 0 C0 1.65 0 3.3 0 5 C-1.1446875 5.2165625 -1.1446875 5.2165625 -2.3125 5.4375 C-5.08172908 5.9632594 -5.08172908 5.9632594 -8 7 C-7.25 4.0625 -7.25 4.0625 -6 1 C-3.81903388 0.04582732 -2.35817766 0 0 0 Z " fill="#F9EDE3" transform="translate(23,1)"/>
<path d="M0 0 C0.99 0 1.98 0 3 0 C3 0.66 3 1.32 3 2 C4.32 2.33 5.64 2.66 7 3 C6.01 3.495 6.01 3.495 5 4 C4.67 4.66 4.34 5.32 4 6 C1.69 5.01 -0.62 4.02 -3 3 C-2.67 2.34 -2.34 1.68 -2 1 C-1.34 1.33 -0.68 1.66 0 2 C0 1.34 0 0.68 0 0 Z " fill="#ECDBB3" transform="translate(6,5)"/>
<path d="M0 0 C0.99 0.495 0.99 0.495 2 1 C2.4140625 3.06640625 2.4140625 3.06640625 2.625 5.5625 C2.69976562 6.38878906 2.77453125 7.21507812 2.8515625 8.06640625 C2.92503906 9.02353516 2.92503906 9.02353516 3 10 C2.01 9.67 1.02 9.34 0 9 C0 6.03 0 3.06 0 0 Z " fill="#FEF9EB" transform="translate(0,11)"/>
</svg>
